<?xml version="1.0" encoding="UTF-8" standalone="no"?>
<!-- Created with Inkscape (http://www.inkscape.org/) -->

<svg
   width="72in"
   height="36in"
   viewBox="0 0 1828.8 914.4"
   version="1.1"
   id="svg1"
   xml:space="preserve"
   xmlns="http://www.w3.org/2000/svg"
   xmlns:svg="http://www.w3.org/2000/svg"
   xmlns:rdf="http://www.w3.org/1999/02/22-rdf-syntax-ns#"
   xmlns:cc="http://creativecommons.org/ns#"
   xmlns:dc="http://purl.org/dc/elements/1.1/"><defs
     id="defs1" /><metadata
     id="metadata1"><rdf:RDF><cc:Work
         rdf:about=""><dc:format>image/svg+xml</dc:format><dc:type
           rdf:resource="http://purl.org/dc/dcmitype/StillImage" /></cc:Work></rdf:RDF></metadata><path
     id="path119"
     style="stroke-width:0.0731893"
     d="m 1310.5329,25.904362 -1056.31586,5.17e-4 c -0.10221,0.0039 -0.20475,0.0074 -0.30696,0.01137 h -0.004 c -3.20849,0.06053 -6.41458,0.338671 -9.56272,0.975651 -3.45293,0.673859 -6.82006,1.746103 -10.06192,3.109371 -3.3734,1.467219 -6.5986,3.280368 -9.58236,5.433776 -3.30955,2.403753 -6.34072,5.191894 -8.97465,8.323007 -2.26868,2.671417 -4.24027,5.592131 -5.903,8.677506 -1.65132,3.071533 -2.96013,6.321897 -3.95583,9.663493 -1.04948,3.655149 -1.7185,7.424955 -1.92443,11.223604 -0.20535,4.845969 -0.0568,9.698875 -0.1018,14.547949 0.005,55.282214 -0.009,110.564704 0.007,165.846724 0.0394,3.18861 0.34051,6.37168 0.95292,9.50226 0.66684,3.35652 1.67161,6.64455 2.99464,9.80147 1.33431,3.15152 2.9827,6.16761 4.9196,8.99015 2.2139,3.19042 4.77716,6.14689 7.66413,8.74624 2.58677,2.34584 5.41651,4.43003 8.44238,6.17326 3.44403,2.03012 7.14699,3.60631 10.97401,4.75578 3.34461,0.99542 6.79433,1.62436 10.27069,1.92444 4.73229,0.30758 9.48028,0.11421 14.2198,0.16846 h 92.13908 c 1.58025,0.10139 3.26764,0.13689 4.87567,0.38241 3.30885,0.40093 6.56491,1.2064 9.70122,2.33267 3.28975,1.19087 6.4323,2.77986 9.36429,4.68705 2.53099,1.67565 4.88548,3.60246 7.0528,5.72678 2.22808,2.25198 4.23557,4.71664 5.97172,7.36751 1.73088,2.69259 3.18131,5.55962 4.33101,8.54729 1.22014,3.27786 2.09688,6.68851 2.53679,10.1601 0.32496,2.4892 0.42097,5.03083 0.38137,7.49412 -0.005,71.38205 0.01,142.76433 -0.008,214.1461 -0.05,3.03471 -0.38722,6.05848 -1.01079,9.0289 -0.68772,3.12546 -1.69323,6.17773 -3.00447,9.09816 -1.33393,2.90921 -2.96662,5.67571 -4.86379,8.25376 -2.10501,2.7935 -4.5053,5.37109 -7.19026,7.61555 -2.93779,2.46284 -6.18713,4.55042 -9.65367,6.18774 -2.97821,1.41988 -6.11993,2.48675 -9.3338,3.23184 -3.18837,0.71394 -6.44954,1.07074 -9.7162,1.11105 -34.01698,0.0204 -68.03479,-0.0119 -102.05165,0.016 -3.18873,0.041 -6.37078,0.35401 -9.50072,0.96842 -3.35441,0.67892 -6.64042,1.68559 -9.7963,3.01222 -3.48767,1.49865 -6.82256,3.36136 -9.89345,5.59501 -3.35665,2.43162 -6.40249,5.28343 -9.0656,8.45891 -2.44286,2.92156 -4.54556,6.126 -6.27196,9.51984 -1.58099,3.14645 -2.85987,6.44901 -3.74603,9.85779 -0.50258,1.87575 -0.52115,3.83289 -0.79582,5.75417 l 5.2e-4,0.001 c -0.30223,2.11349 -0.83732,4.19477 -0.8754,6.32984 -0.0192,4.96855 -0.008,9.93767 -0.008,14.90659 h -5.2e-4 c -8e-5,7.6506 -0.004,15.30112 -0.0124,22.95157 0.007,47.24793 -0.0135,94.49616 0.0103,141.7438 0.0371,3.18836 0.35637,6.36875 0.96686,9.49864 0.67806,3.35473 1.68842,6.63975 3.01326,9.79631 1.4964,3.48903 3.35965,6.82424 5.59397,9.895 2.43394,3.3547 5.28259,6.40274 8.45788,9.06611 2.65737,2.21634 5.54365,4.1528 8.59172,5.79138 3.05973,1.62462 6.28619,2.92408 9.60665,3.91139 3.57583,1.01823 7.2582,1.67284 10.97039,1.89704 2.47642,0.12714 4.92525,0.0231 7.43366,0.0553 354.25386,-0.002 708.50823,0.005 1062.76203,-0.003 3.1879,-0.046 6.3727,-0.32421 9.5028,-0.94154 3.3913,-0.6617 6.713,-1.67475 9.9007,-3.00964 3.1827,-1.34757 6.224,-3.02003 9.0738,-4.97644 3.596,-2.50775 6.8892,-5.45896 9.7168,-8.8129 2.3179,-2.7015 4.3152,-5.67151 6.0058,-8.80308 1.6345,-3.054 2.9409,-6.27899 3.9305,-9.59838 1.0465,-3.63648 1.7134,-7.38611 1.9296,-11.16521 0.2137,-4.84903 0.062,-9.70544 0.1075,-14.55776 0.027,-4.96326 -0.054,-9.92869 0.041,-14.89057 0.086,-3.7663 0.6879,-7.51266 1.712,-11.13575 0.9643,-3.36382 2.3276,-6.6112 4.0344,-9.66556 1.8799,-3.30103 4.1385,-6.39247 6.7898,-9.11676 2.3191,-2.44024 4.9428,-4.58376 7.7494,-6.44043 2.9287,-1.91514 6.0807,-3.48515 9.3674,-4.68447 2.825,-1.01644 5.746,-1.7404 8.7116,-2.20297 4.6544,-0.68799 9.3697,-0.44222 14.0575,-0.48731 l 329.1427,-0.003 c 3.1873,-0.0455 6.3713,-0.32523 9.5013,-0.93948 3.3919,-0.66185 6.7134,-1.6776 9.9022,-3.01118 2.6038,-1.10783 4.9932,-2.64105 7.3804,-4.16099 0.843,-0.53668 1.7974,-0.88196 2.6061,-1.46916 0.9219,-0.66864 1.617,-1.59471 2.4908,-2.32441 2.3065,-1.92619 4.6433,-3.83254 6.5748,-6.13606 2.2214,-2.65297 4.1533,-5.54173 5.7919,-8.58914 1.6246,-3.05972 2.9239,-6.28618 3.9113,-9.60664 1.0183,-3.57582 1.6725,-7.25822 1.8971,-10.97039 0.02,-0.45255 -2e-4,-0.90593 0.01,-1.35858 0.2244,-24.28293 0.099,-48.57851 0.1,-72.86532 l -5.2973,-7.66775 c -5e-4,20.61269 0,41.2254 0,61.83809 l -6.6611,-9.64179 V 628.9411 l -6.35,-9.19118 v 61.83809 L 1630.562,458.22268 c -0.23,-0.33291 -0.2301,-1.28138 0,-1.61438 l 154.3151,-223.36569 5e-4,-5.2e-4 v 61.83912 l -109.0998,157.9175 c -3.0513,4.41661 -3.0515,4.41661 0,8.83357 l 109.1003,157.918 6.35,9.19118 6.6611,9.64178 5.2968,7.66775 V 196.34202 c -0.057,-3.17562 -0.3484,-6.3471 -0.9772,-9.46247 -0.6726,-3.42884 -1.7284,-6.77678 -3.0887,-9.99474 -1.3692,-3.18141 -3.0682,-6.21617 -5.041,-9.06301 -2.1707,-3.05794 -4.6507,-5.9012 -7.4388,-8.41138 -3.0408,-2.7535 -6.4176,-5.13095 -10.0361,-7.06365 -3.0772,-1.64422 -6.3255,-2.96481 -9.6754,-3.94239 -3.3081,-0.96104 -6.7149,-1.5682 -10.1487,-1.84485 -4.7841,-0.29735 -9.5843,-0.1103 -14.3754,-0.16278 -108.7143,-0.002 -217.4286,0.005 -326.1428,-0.004 -3.034,-0.0389 -6.0617,-0.33905 -9.0346,-0.95188 -3.4227,-0.72646 -6.7653,-1.8355 -9.9338,-3.32021 -3.4668,-1.63538 -6.7334,-3.69738 -9.6723,-6.16035 -2.5696,-2.12238 -4.875,-4.55556 -6.9163,-7.18871 -1.9606,-2.57215 -3.641,-5.35108 -5.0292,-8.27236 -1.3448,-2.90461 -2.3919,-5.94219 -3.1171,-9.06043 -0.6746,-3.04272 -1.0692,-6.14879 -1.1204,-9.26713 -0.05,-6.333338 -0.01,-12.759895 -0.022,-19.129067 -0.025,-5.262295 0.2099,-10.577639 -0.8232,-15.769063 -0.6182,-3.573051 -1.6641,-7.071002 -3.0597,-10.416935 -1.376,-3.359266 -3.1714,-6.536546 -5.2261,-9.526551 -2.5387,-3.573654 -5.5046,-6.850259 -8.8754,-9.657808 -2.7469,-2.329535 -5.7738,-4.314779 -8.9483,-6.012036 -3.0119,-1.555827 -6.1648,-2.835421 -9.4227,-3.778064 -3.2797,-0.938979 -6.6511,-1.543826 -10.0526,-1.813326 -4.8173,-0.300824 -9.6507,-0.111094 -14.4751,-0.164331 z m -1056.43316,5.29115 c 18.90995,1.27e-4 37.81991,-5.8e-5 56.72987,0 l -1.82367,6.806303 h -44.16216 l 1.82385,-6.806165 -6.60891,-1.08e-4 -1.7887,6.806273 h -4.254 c -21.04205,-10e-7 -38.1,17.057951 -38.1,38.1 V 254.01189 c 0,21.04205 17.05795,38.1 38.1,38.1 h 101.41603 c 31.56307,0 57.15,25.58693 57.15,57.15 V 564.9712 c 0,31.56307 -25.58693,57.15 -57.15,57.15 H 254.01602 c -21.04205,0 -38.1,17.05795 -38.1,38.1 v 33.83463 24.53493 119.54051 c 0,21.04205 17.05795,38.1 38.1,38.1 h 4.1398 l 1.78335,6.65489 h -5.52059 c -0.48902,0.13063 -1.25395,-0.0282 -1.8495,-0.0103 -3.6654,-0.10137 -7.30894,-0.70709 -10.83603,-1.70016 -3.39392,-0.97733 -6.67412,-2.35246 -9.75134,-4.08554 -3.33233,-1.89503 -6.43165,-4.19957 -9.17671,-6.8771 -2.40354,-2.30996 -4.51537,-4.91398 -6.35258,-7.6941 -1.90011,-2.93799 -3.47374,-6.08823 -4.65811,-9.38082 -1.28906,-3.60972 -2.13195,-7.37877 -2.46032,-11.1988 -0.3472,-4.18002 -0.14299,-8.38313 -0.19843,-12.5734 V 693.28585 668.75039 l -5.2e-4,-0.002 v -10.07432 c 0.13106,-1.39654 0.0985,-2.93928 0.33331,-4.37906 0.31139,-2.91533 0.94819,-5.79714 1.84485,-8.58708 1.14373,-3.62442 2.78252,-7.08425 4.80022,-10.30273 1.87611,-2.95393 4.09115,-5.69199 6.58823,-8.14369 2.17386,-2.11816 4.56611,-3.99714 7.09931,-5.66632 2.62449,-1.65079 5.39347,-3.06544 8.28838,-4.17907 3.27349,-1.2354 6.68597,-2.10988 10.15597,-2.56522 4.69571,-0.62177 9.44225,-0.33877 14.164,-0.40359 31.18999,-0.007 62.38081,0.0144 93.57051,-0.01 3.18836,-0.0371 6.36875,-0.35638 9.49865,-0.96687 3.35542,-0.67783 6.64109,-1.68816 9.79785,-3.01428 3.48856,-1.49624 6.82284,-3.36008 9.89397,-5.59294 3.27522,-2.37224 6.26096,-5.14105 8.86767,-8.23309 2.31406,-2.70639 4.29963,-5.68357 5.9893,-8.81652 1.62598,-3.05913 2.92372,-6.28631 3.91139,-9.60665 1.01812,-3.57521 1.67223,-7.25734 1.89704,-10.96884 0.21718,-4.94835 0.0637,-9.90376 0.10956,-14.85542 -0.005,-67.94484 0.009,-135.88995 -0.007,-203.83459 -0.0434,-3.18832 -0.33893,-6.37174 -0.95498,-9.50174 -0.66778,-3.3562 -1.66871,-6.64486 -2.99258,-9.80147 -1.4992,-3.52413 -3.38063,-6.88911 -5.6317,-9.98854 -2.43212,-3.35582 -5.28243,-6.40198 -8.4584,-9.06404 -2.9478,-2.46292 -6.18123,-4.58471 -9.61027,-6.31538 -3.11632,-1.56705 -6.39256,-2.82216 -9.76787,-3.70262 -3.93948,-1.05533 -8.00818,-1.59865 -12.08454,-1.67018 -21.04595,-0.0365 -42.09336,-0.005 -63.13981,-0.016 h -39.93917 c -1.54207,-0.10821 -3.20038,-0.12871 -4.77387,-0.3731 -3.3433,-0.39343 -6.63371,-1.20334 -9.80043,-2.34301 -3.29043,-1.19143 -6.43495,-2.77897 -9.36687,-4.68809 -2.53138,-1.6751 -4.88548,-3.60191 -7.05177,-5.7273 -2.22974,-2.24999 -4.23352,-4.71725 -5.97121,-7.36647 -1.72975,-2.69328 -3.18077,-5.55959 -4.33048,-8.54728 -1.21919,-3.27826 -2.10007,-6.68859 -2.53887,-10.16063 -0.60642,-4.62991 -0.3253,-9.30943 -0.39067,-13.96452 V 75.42227 c 0.13106,-1.396539 0.0985,-2.939289 0.33331,-4.379061 0.31139,-2.915333 0.94767,-5.797134 1.84433,-8.587073 1.14312,-3.624696 2.78266,-7.084311 4.80074,-10.30273 1.87518,-2.954466 4.09246,-5.690911 6.58823,-8.143689 2.17472,-2.117732 4.56497,-4.000482 7.10034,-5.667355 2.59823,-1.630165 5.3318,-3.041938 8.19744,-4.140832 3.29821,-1.261441 6.74464,-2.140418 10.24588,-2.602942 1.94598,-0.263265 3.89246,-0.361219 5.85443,-0.403076 z m 63.30363,0 c 14.82923,3.9e-5 29.65848,-3e-6 44.48772,0 l -1.82366,6.806303 H 315.5797 Z m 51.06148,0 c 14.77463,-2e-6 29.54927,3.3e-5 44.32391,0 l -1.82366,6.806303 h -44.32391 z m 50.89818,0 c 300.63677,-7.7e-4 601.27367,-0.0071 901.91037,0 3.0333,0.03899 6.0606,0.341713 9.0325,0.956531 3.4238,0.723886 6.7665,1.835114 9.9358,3.319177 3.4656,1.636369 6.7318,3.697576 9.6702,6.160347 2.5699,2.121513 4.8734,4.55563 6.9154,7.187675 2.1187,2.784693 3.9293,5.806439 5.3578,9.001518 1.352,3.046184 2.3907,6.235937 3.0287,9.50743 0.8277,3.882426 0.954,7.866172 0.9028,11.823051 0.018,7.730121 -0.036,15.461583 0.027,23.190829 0.067,3.49307 0.4896,6.98135 1.2836,10.38335 0.782,3.3994 1.9164,6.72082 3.3993,9.87795 1.6823,3.65423 3.8313,7.08744 6.3371,10.23297 2.7601,3.42065 5.9467,6.50297 9.5002,9.09401 2.8994,2.15232 6.0562,3.94549 9.3472,5.42758 3.1413,1.39007 6.424,2.44887 9.7782,3.18947 3.3491,0.70904 6.7656,1.08604 10.1891,1.12655 27.1401,0.0319 54.2814,0.005 81.4219,0.0134 44.385,0.003 88.7701,0.005 133.1552,0.004 l -0.5147,0.74517 -4.3641,6.31693 h -209.6792 v -0.16846 c -31.5631,0 -57.15,-25.58693 -57.15,-57.15 V 76.101815 c 0,-21.042049 -17.058,-38.100001 -38.1,-38.1 H 417.53937 Z M 254.01602,44.351815 h 2.5523 l -0.11421,0.425814 -34.18809,127.592211 V 76.101815 c 0,-17.535041 14.21496,-31.75 31.75,-31.75 z m 9.12657,0 h 44.16165 l -63.9222,238.560635 c -12.31549,-4.37003 -20.69558,-15.83948 -21.11602,-28.90056 V 196.90478 L 263.02839,44.777629 Z m 50.73541,0 h 44.48772 L 293.67975,285.76189 h -39.66373 c -1.52749,-0.29114 -3.03153,-0.69409 -4.49998,-1.20562 z m 51.06148,0 h 44.32391 L 344.57793,285.76189 h -44.32339 z m 50.89819,0 h 904.90963 c 17.535,0 31.75,14.214959 31.75,31.75 v 25.332825 c 0,35.07008 28.4299,63.5 63.5,63.5 h 205.4081 l -0.4129,0.59789 -198.6008,287.46618 c -3.0513,4.41661 -3.0515,4.41661 0,8.83357 l 198.6008,287.46617 h -204.9952 c -35.0701,0 -63.5,28.42992 -63.5,63.5 v 25.33282 c 0,17.53504 -14.215,31.75 -31.75,31.75 H 415.72398 L 351.038,628.4712 h 4.39405 c 35.07008,0 63.5,-28.42992 63.5,-63.5 V 349.26189 c 0,-35.07008 -28.42992,-63.5 -63.5,-63.5 h -4.27984 z M 1638.2736,151.691 c 14.2087,-2.2e-4 28.4173,5.2e-4 42.6259,0.001 l -0.5168,0.74776 -4.3615,6.31331 h -42.6268 l 4.364,-6.31641 z m 50.3437,0.002 c 14.39,7.1e-4 28.78,-0.001 43.17,10e-4 l -0.5204,0.75345 -4.3568,6.30607 h -43.1715 l 4.3615,-6.31228 z m 50.8879,10e-4 c 4.5465,7.5e-4 9.093,-4e-4 13.6395,5.2e-4 3.0345,0.0363 6.0601,0.35512 9.033,0.96583 3.4188,0.74257 6.7626,1.84913 9.925,3.3476 1.7877,0.84482 3.3214,2.11564 4.9826,3.18689 l -0.3111,0.45062 -3.4582,5.00589 c -6.0428,-3.82122 -13.0389,-5.86505 -20.1884,-5.89783 h -18.4996 l 4.3563,-6.30504 z m 42.8201,11.08822 c 2.4626,2.1332 4.7458,4.48084 6.6978,7.08845 1.7784,2.41832 3.3209,5.00195 4.607,7.71426 1.3477,2.90327 2.3896,5.94228 3.1181,9.05939 0.6961,3.12332 1.0768,6.31403 1.1291,9.51467 0,2.36486 -5e-4,4.72979 6e-4,7.09466 l -6.6508,9.6268 V 196.8531 h 5e-4 c -0.058,-10.84649 -4.7364,-21.15407 -12.8622,-28.33884 l 3.5481,-5.13612 z m -153.2015,2.15284 h 42.6264 l -0.4129,0.59789 -198.6008,287.46618 c -3.0513,4.41661 -3.0515,4.41661 0,8.83357 l 198.6008,287.46617 h -42.6264 L 1427.6162,458.22268 c -0.23,-0.33291 -0.23,-1.28138 0,-1.61438 l 201.0947,-291.07577 z m 50.3442,0 h 43.171 l -0.4129,0.59789 -198.6008,287.46618 c -3.0513,4.41661 -3.0515,4.41661 0,8.83357 l 198.6008,287.46617 h -43.171 L 1477.9609,458.22319 c -0.2301,-0.3331 -0.2302,-1.2822 0,-1.6154 l 201.0942,-291.07526 z m 50.8894,0 h 22.7702 v 0.16846 c 5.8596,0.0339 11.5954,1.68865 16.5726,4.7811 l -0.3136,0.45424 -195.2806,282.66027 c -3.0513,4.41661 -3.0515,4.41661 0,8.83357 l 195.2806,282.66026 c -4.9009,2.98696 -10.5198,4.5896 -16.259,4.63744 v 0.16847 h -23.1831 L 1528.8498,458.22319 c -0.2301,-0.3331 -0.2302,-1.2822 0,-1.6154 l 201.0947,-291.07526 z m 44.4035,8.79687 c 6.4222,5.97825 10.0841,14.34761 10.1167,23.12159 h -5e-4 v 25.2181 L 1625.337,452.99871 c -3.0513,4.41661 -3.0515,4.41661 0,8.83357 l 159.5401,230.9275 v 24.6202 h 5e-4 c -0.3971,8.69607 -4.3472,16.84768 -10.9264,22.54798 L 1579.3305,458.22268 c -0.23,-0.33291 -0.2301,-1.28138 0,-1.61438 l 194.6207,-281.70528 z m 23.118,40.69106 c 0.01,20.61052 0.01,41.22117 0.01,61.83189 l -6.6565,9.63507 -5e-4,5.1e-4 v -61.83912 z m 0.01,73.00278 V 627.4108 l -6.6606,-9.64127 h -5e-4 V 297.06197 l 5e-4,-5.2e-4 z m -13.008,18.82779 v 302.3247 L 1681.0018,458.22268 c -0.2451,-0.35465 -0.2449,-1.25993 0,-1.61438 z M 254.01602,628.4712 h 39.55004 l 64.68597,241.41007 H 313.76431 L 249.40958,629.70523 c 1.50237,-0.52624 3.0422,-0.93875 4.60644,-1.23403 z m 46.12432,0 h 44.32391 l 64.68545,241.41007 h -44.32391 z m -56.86475,2.87786 63.91496,238.53221 H 263.02839 L 222.26602,717.75412 V 660.2212 c 0.41525,-13.02338 8.74538,-24.47095 21.00957,-28.87214 z m 1547.95151,70.60189 6.6611,9.64179 c -2e-4,2.05552 10e-5,4.11103 0,6.16655 -0.053,3.03421 -0.3709,6.06007 -0.9968,9.03046 -0.7408,3.4194 -1.8619,6.75921 -3.3652,9.9198 -1.4227,2.97671 -3.1575,5.80729 -5.1987,8.39949 -1.8508,2.38208 -4.1205,4.38604 -6.414,6.3438 l -3.8117,-5.51749 c 8.2801,-7.18652 13.0629,-17.59171 13.1258,-28.55537 h -5e-4 z m -1568.96108,40.33811 34.18809,127.59221 h -2.43809 c -17.53504,0 -31.75,-14.21496 -31.75,-31.75 z m 1550.74828,7.45432 3.7599,5.44257 c -1.8425,1.16168 -3.6216,2.43365 -5.6094,3.32331 -2.7754,1.22915 -5.6719,2.16068 -8.629,2.84013 -3.0356,0.62972 -6.1234,0.99975 -9.2252,1.03147 -4.7754,0.005 -9.5509,-2e-4 -14.3263,0.002 l -4.7692,-6.90294 h 18.9125 c 7.0312,-0.0405 13.9141,-2.02599 19.8867,-5.7366 z m -357.017,5.7366 h 209.2663 l 4.777,6.91483 c -71.2848,6.3e-4 -142.5696,-0.008 -213.8542,0.006 -3.1886,0.0394 -6.3716,0.34102 -9.5022,0.95343 -3.3565,0.66684 -6.6446,1.6711 -9.8015,2.99413 -3.4947,1.48245 -6.8282,3.34799 -9.9069,5.56969 -3.3834,2.45103 -6.462,5.31564 -9.1452,8.51834 -2.4618,2.94924 -4.5851,6.18246 -6.3153,9.61233 -1.5643,3.11744 -2.8215,6.39249 -3.7032,9.76737 -1.0555,3.93948 -1.5979,8.00874 -1.6707,12.08505 -0.062,8.91579 0.02,17.83454 -0.041,26.7503 -0.068,3.33141 -0.4771,6.66082 -1.2805,9.89501 -0.8801,3.69773 -2.2727,7.2635 -4.0556,10.61795 -1.6583,3.08129 -3.6764,5.96765 -5.9929,8.59018 -2.0147,2.27045 -4.2694,4.31333 -6.6777,6.15828 -2.5009,1.83416 -5.1619,3.44458 -7.9721,4.7594 -3.2082,1.47489 -6.5812,2.60389 -10.0448,3.2985 -3.7518,0.78729 -7.5948,0.96579 -11.419,0.91519 H 419.20852 l -1.78335,-6.65489 h 903.32213 c 21.042,0 38.1,-17.05795 38.1,-38.1 v -25.33282 c 0,-31.56307 25.5869,-57.15 57.15,-57.15 z m 216.9842,0 h 42.6268 l 4.7744,6.91121 c -5.5179,-1.8e-4 -11.0357,10e-4 -16.5535,0.003 -8.6901,5.3e-4 -17.3801,3.6e-4 -26.0703,5.2e-4 l -5e-4,-5.2e-4 z m 50.3442,0 h 43.1715 l 4.7697,6.90398 c -14.3889,0.004 -28.7778,0.008 -43.1668,0.006 z M 264.72958,876.23127 h 44.16216 l 1.78335,6.65489 h -44.16216 z m 50.73592,0 h 44.48772 l 1.78336,6.65489 h -44.48773 z m 51.06148,0 h 44.32391 l 1.78335,6.65489 h -44.3239 z" /></svg>
