<?xml version="1.0" encoding="UTF-8" standalone="no"?>
<!DOCTYPE svg PUBLIC "-//W3C//DTD SVG 1.1//EN" "http://www.w3.org/Graphics/SVG/1.1/DTD/svg11.dtd">
<!-- Created with Vectornator (http://vectornator.io/) -->
<svg height="100%" stroke-miterlimit="10" style="fill-rule:nonzero;clip-rule:evenodd;stroke-linecap:round;stroke-linejoin:round;" version="1.1" viewBox="0 0 2592 5184" width="100%" xml:space="preserve" xmlns="http://www.w3.org/2000/svg" xmlns:vectornator="http://vectornator.io" xmlns:xlink="http://www.w3.org/1999/xlink">
<defs/>
<g id="Layer-2" vectornator:layerName="Layer 2">
<path d="M216.402 2591.96C216.402 2579.12 226.813 2568.71 239.657 2568.71L2352.34 2568.71C2365.19 2568.71 2375.6 2579.12 2375.6 2591.96L2375.6 2591.96C2375.6 2604.81 2365.19 2615.22 2352.34 2615.22L239.657 2615.22C226.813 2615.22 216.402 2604.81 216.402 2591.96L216.402 2591.96Z" fill="#000000" fill-rule="nonzero" opacity="1" stroke="none" vectornator:layerName="Rectangle 1"/>
<path d="M216.402 2328.94C216.402 2316.09 226.813 2305.68 239.657 2305.68L2352.34 2305.68C2365.19 2305.68 2375.6 2316.09 2375.6 2328.94L2375.6 2328.94C2375.6 2341.78 2365.19 2352.19 2352.34 2352.19L239.657 2352.19C226.813 2352.19 216.402 2341.78 216.402 2328.94L216.402 2328.94Z" fill="#000000" fill-rule="nonzero" opacity="1" stroke="none" vectornator:layerName="Rectangle 2"/>
<path d="M2125 2370.06C2112.92 2370.06 2095.81 2376.7 2095.81 2394.44C2095.81 2402.89 2100.8 2409.66 2106.5 2413.38C2112.17 2417.07 2118.69 2418.44 2125.38 2418.44C2141.96 2418.44 2170.04 2418.44 2191.72 2418.44C2191.72 2452.97 2191.72 2504.01 2191.72 2532.53C2191.72 2543.88 2200.33 2550.33 2206 2552.81C2212.06 2555.47 2218.25 2556.16 2224.53 2556.16C2230.83 2556.16 2237.01 2555.47 2243.06 2552.81C2248.69 2550.34 2257.34 2543.91 2257.34 2532.53C2257.34 2504.01 2257.34 2452.97 2257.34 2418.44C2279.02 2418.44 2307.1 2418.44 2323.69 2418.44C2330.24 2418.44 2336.62 2416.99 2342.12 2413.41C2347.52 2409.9 2352.91 2403.33 2352.91 2394.44C2352.91 2376.67 2335.59 2370.06 2323.69 2370.06C2274.02 2370.06 2174.67 2370.06 2125 2370.06Z" fill="#000000" fill-rule="nonzero" opacity="1" stroke="none" vectornator:layerName="Curve 11"/>
<path d="M612.906 2368.88C600.234 2368.88 584.791 2371.43 575.469 2384.53C575.433 2384.58 575.348 2384.67 575.312 2384.72C575.299 2384.74 575.295 2384.76 575.281 2384.78C550.72 2418.58 501.876 2485.8 477.406 2519.47C477.158 2519.81 476.907 2520.17 476.688 2520.53C475.287 2522.83 473.344 2527.17 473.344 2531.94C473.344 2541.77 479.938 2547.45 484.125 2550.12C488.749 2553.08 493.776 2554.62 499.062 2555.38C499.082 2555.38 499.105 2555.37 499.125 2555.38C502.175 2555.85 505.363 2556.16 508.688 2556.16C516.551 2556.16 528.689 2554.62 535.812 2543.47C535.73 2543.6 535.649 2543.75 535.562 2543.88C541.35 2535.38 551.33 2520.75 558.719 2509.91C589.173 2509.91 636.781 2509.91 667.188 2509.91C674.722 2520.73 684.886 2535.36 690.875 2543.97C690.884 2543.98 690.898 2543.99 690.906 2544C690.939 2544.05 690.999 2544.14 691.031 2544.19C698.389 2554.89 710.449 2556.34 718.562 2556.34C721.613 2556.34 724.645 2556.06 727.625 2555.53C732.539 2554.82 737.348 2553.54 742 2550.84C746.263 2548.38 753.531 2542.65 753.531 2532.34C753.531 2527.43 751.028 2521.82 748.062 2518.56C748.452 2518.99 748.817 2519.44 749.156 2519.91C724.633 2486.07 675.586 2418.4 651.062 2384.56C641.573 2371.19 625.691 2368.88 612.906 2368.88ZM613.312 2431.5C619.088 2439.79 626.794 2450.85 634.781 2462.31C619.481 2462.31 606.708 2462.31 591.375 2462.31C599.54 2450.84 607.469 2439.71 613.312 2431.5Z" fill="#000000" fill-rule="nonzero" opacity="1" stroke="none" vectornator:layerName="Curve 12"/>
<path d="M291.031 2369.06C277.225 2369.06 265.391 2370.32 255.344 2376.22C244.337 2382.69 239.094 2394.38 239.094 2406.16C239.094 2434.38 239.094 2490.84 239.094 2519.06C239.094 2530.67 244.326 2542.41 255.406 2548.88C265.455 2554.74 277.258 2555.97 291.031 2555.97C313.297 2555.97 357.828 2555.97 380.094 2555.97C409.263 2555.97 433.344 2552 451.594 2542.97C469.93 2533.9 483.219 2518.09 483.219 2497.25C483.219 2481.47 475.573 2467.62 462.656 2458.53C461.261 2457.55 459.804 2456.63 458.312 2455.75C467.992 2447.26 473.469 2435.43 473.469 2422.38C473.469 2402.71 460.263 2388.33 443.031 2380.38C425.855 2372.44 403.368 2369.06 376.125 2369.06C354.852 2369.06 312.305 2369.06 291.031 2369.06ZM303.625 2416.66C323.307 2416.66 356.102 2416.66 373.594 2416.66C388.864 2416.66 399.247 2418.8 404.156 2421.12C408.611 2423.24 407.875 2423.71 407.875 2424.78C407.875 2425.97 408.138 2427.31 403.25 2429.88C398.209 2432.52 388.313 2434.91 374.312 2434.91C356.641 2434.91 326.51 2434.91 303.625 2434.91C303.625 2428.24 303.625 2422.74 303.625 2416.66ZM303.625 2482.31C326.812 2482.31 357.461 2482.31 375.406 2482.31C392.554 2482.31 404.456 2484.88 410.531 2487.94C416.144 2490.76 416.531 2492.46 416.531 2495.44C416.531 2498.12 416.312 2499.85 410.688 2502.72C404.728 2505.75 393.028 2508.34 376.125 2508.34C358 2508.34 323.521 2508.34 303.625 2508.34C303.625 2499.94 303.625 2491.59 303.625 2482.31Z" fill="#000000" fill-rule="nonzero" opacity="1" stroke="none" vectornator:layerName="Curve 13"/>
<path d="M858.688 2369.16C823.361 2369.16 797.226 2374.07 778.594 2383C760.235 2391.8 747.25 2406.24 747.25 2424.5C747.25 2433.34 749.544 2442.11 754.562 2449.56C759.545 2456.96 766.622 2462.44 774.688 2466.59C790.748 2474.87 811.938 2479.01 839.625 2482.06C846.836 2482.88 861.258 2484.52 868.469 2485.34C868.495 2485.35 868.505 2485.34 868.531 2485.34C889.235 2487.59 902.757 2490.63 909.125 2493.53C912.294 2494.98 913.231 2496.07 913.344 2496.22C913.391 2496.28 913.5 2496.03 913.5 2497.25C913.5 2497.25 914.572 2498.85 905.188 2502.69C896.496 2506.24 881.555 2508.91 862.281 2508.91C837.266 2508.91 823.579 2505.32 816.438 2501.72C809.574 2498.26 807.569 2495.01 805.094 2490.09C805.034 2489.98 804.969 2489.87 804.906 2489.75C800.994 2482.45 794.578 2479.47 789.938 2477.94C784.961 2476.29 780.091 2475.78 775.375 2475.78C772.143 2475.78 769.728 2476.08 767.875 2476.25C767.681 2476.27 767.474 2476.29 767.281 2476.31C762.136 2476.97 757.058 2478.15 752.062 2480.91C747.59 2483.37 740.063 2489.25 740.062 2499.75C740.062 2505.3 741.748 2507.71 741.75 2507.72C742.018 2508.43 742.349 2509.12 742.719 2509.78C747.723 2518.8 756.806 2531.9 775.781 2541.19C794.494 2550.34 821.659 2556.06 864.094 2556.06C897.809 2556.06 924.88 2551.36 944.875 2542.22C964.459 2533.26 979.844 2518.06 979.844 2497.06C979.844 2487.18 976.911 2477.67 971.062 2469.91C965.281 2462.23 957.383 2456.8 948.531 2452.69C930.85 2444.46 907.854 2440.42 879.188 2437.19C879.161 2437.18 879.12 2437.19 879.094 2437.19C872.422 2436.47 859.078 2435.03 852.406 2434.31C852.392 2434.31 852.39 2434.28 852.375 2434.28C832.844 2432.23 820.984 2429.28 815.969 2426.81C813.493 2425.59 813.188 2425 813.188 2425C813.188 2425 813.25 2425.59 813.25 2424.5C813.25 2424.5 811.202 2425.3 818.75 2422C825.777 2418.92 839.087 2416.12 858.688 2416.12C896.631 2416.12 904.075 2426.11 905.906 2429.59C906.234 2430.22 906.591 2430.8 907 2431.38C911.141 2437.17 916.793 2439.97 921.5 2441.47C926.346 2443.02 931.038 2443.47 935.5 2443.47C938.668 2443.47 941.369 2443.2 943.281 2443C943.281 2443 943.281 2442.97 943.281 2442.97C948.418 2442.42 953.472 2441.27 958.406 2438.59C962.704 2436.26 970.469 2430.58 970.469 2419.88C970.469 2414.9 968.485 2410.82 966.469 2408.03C954.188 2387.88 924.72 2369.16 858.688 2369.16Z" fill="#000000" fill-rule="nonzero" opacity="1" stroke="none" vectornator:layerName="Curve 14"/>
<path d="M1922.41 2370.06C1908.64 2370.06 1896.89 2371.23 1886.81 2376.91C1875.76 2383.13 1870.12 2394.73 1870.12 2406.69C1870.12 2438.05 1870.13 2500.79 1870.12 2532.16C1870.12 2542.74 1877.69 2549.71 1883.88 2552.59C1890.05 2555.48 1896.31 2556.16 1902.56 2556.16C1908.97 2556.16 1915.25 2555.51 1921.41 2552.72C1927.4 2550.01 1935.38 2543.2 1935.38 2532.34C1935.38 2520.27 1935.37 2500.55 1935.38 2484.03C1968.83 2484.03 2017.87 2484.03 2045.38 2484.03C2051.94 2484.03 2058.34 2482.8 2064.03 2479.22C2069.76 2475.62 2074.94 2468.82 2074.94 2460.25C2074.94 2452.41 2070.54 2445.1 2064.31 2441.09C2058.4 2437.29 2051.88 2436.25 2045.38 2436.25C2017.87 2436.25 1968.83 2436.25 1935.38 2436.25C1935.38 2429.67 1935.37 2424.27 1935.38 2418.25C1969.94 2418.25 2033.02 2418.25 2065.56 2418.25C2072.31 2418.25 2078.91 2417.13 2084.84 2413.41C2090.95 2409.57 2095.84 2402.4 2095.84 2394.06C2095.84 2385.73 2090.88 2378.51 2084.66 2374.72C2078.7 2371.09 2072.19 2370.06 2065.56 2370.06C2029.77 2370.06 1958.2 2370.06 1922.41 2370.06Z" fill="#000000" fill-rule="nonzero" opacity="1" stroke="none" vectornator:layerName="Curve 15"/>
<path d="M1728.59 2368.88C1715.91 2368.88 1700.5 2371.45 1691.19 2384.53C1691.15 2384.58 1691.07 2384.67 1691.03 2384.72C1691.02 2384.74 1691.01 2384.76 1691 2384.78C1666.43 2418.58 1617.57 2485.8 1593.09 2519.47C1592.84 2519.81 1592.6 2520.17 1592.38 2520.53C1590.85 2523.04 1589.06 2527.45 1589.06 2531.94C1589.06 2541.77 1595.66 2547.45 1599.84 2550.12C1604.47 2553.07 1609.49 2554.62 1614.78 2555.38C1614.8 2555.38 1614.82 2555.37 1614.84 2555.38C1617.87 2555.85 1621.05 2556.16 1624.38 2556.16C1632.23 2556.16 1644.38 2554.62 1651.5 2543.47C1651.42 2543.6 1651.34 2543.75 1651.25 2543.88C1657.04 2535.38 1667.04 2520.75 1674.44 2509.91C1704.89 2509.91 1752.5 2509.91 1782.91 2509.91C1790.44 2520.73 1800.61 2535.36 1806.59 2543.97C1806.6 2543.98 1806.62 2543.99 1806.62 2544C1806.66 2544.05 1806.72 2544.14 1806.75 2544.19C1814.09 2554.87 1826.12 2556.34 1834.25 2556.34C1837.3 2556.34 1840.34 2556.07 1843.34 2555.53C1848.26 2554.82 1853.07 2553.51 1857.72 2550.81C1861.99 2548.33 1869.22 2542.61 1869.22 2532.34C1869.22 2527.45 1866.71 2521.81 1863.72 2518.53C1864.11 2518.96 1864.5 2519.43 1864.84 2519.91C1840.33 2486.07 1791.3 2418.4 1766.78 2384.56C1757.28 2371.18 1741.36 2368.87 1728.59 2368.88ZM1729.03 2431.5C1734.8 2439.79 1742.49 2450.85 1750.47 2462.31C1735.18 2462.31 1722.42 2462.31 1707.09 2462.31C1715.26 2450.84 1723.19 2439.71 1729.03 2431.5Z" fill="#000000" fill-rule="nonzero" opacity="1" stroke="none" vectornator:layerName="Curve 16"/>
<path d="M1096.66 2369.16C1061.33 2369.16 1035.19 2374.07 1016.56 2383C998.207 2391.8 985.25 2406.25 985.25 2424.5C985.25 2433.34 987.544 2442.11 992.562 2449.56C997.545 2456.96 1004.62 2462.44 1012.69 2466.59C1028.75 2474.87 1049.94 2479.01 1077.62 2482.06C1084.84 2482.88 1099.26 2484.52 1106.47 2485.34C1106.5 2485.35 1106.51 2485.34 1106.53 2485.34C1127.23 2487.59 1140.76 2490.63 1147.12 2493.53C1150.29 2494.98 1151.23 2496.07 1151.34 2496.22C1151.39 2496.28 1151.5 2496.03 1151.5 2497.25C1151.5 2497.25 1152.57 2498.85 1143.19 2502.69C1134.5 2506.24 1119.56 2508.91 1100.28 2508.91C1075.27 2508.91 1061.58 2505.32 1054.44 2501.72C1047.57 2498.26 1045.57 2495.01 1043.09 2490.09C1043.03 2489.98 1042.97 2489.87 1042.91 2489.75C1038.99 2482.45 1032.58 2479.47 1027.94 2477.94C1022.96 2476.29 1018.09 2475.78 1013.38 2475.78C1010.14 2475.78 1007.73 2476.08 1005.88 2476.25C1005.68 2476.27 1005.47 2476.29 1005.28 2476.31C1000.14 2476.97 995.059 2478.16 990.062 2480.91C985.603 2483.36 978.031 2489.21 978.031 2499.75C978.031 2505.3 979.716 2507.71 979.719 2507.72C979.987 2508.43 980.318 2509.12 980.688 2509.78C985.696 2518.81 994.8 2531.91 1013.78 2541.19C1032.5 2550.34 1059.66 2556.06 1102.09 2556.06C1135.81 2556.06 1162.88 2551.36 1182.88 2542.22C1202.46 2533.26 1217.84 2518.06 1217.84 2497.06C1217.84 2487.18 1214.91 2477.67 1209.06 2469.91C1203.28 2462.23 1195.38 2456.8 1186.53 2452.69C1168.85 2444.46 1145.85 2440.42 1117.19 2437.19C1117.16 2437.18 1117.12 2437.19 1117.09 2437.19C1110.42 2436.47 1097.08 2435.03 1090.41 2434.31C1090.39 2434.31 1090.39 2434.28 1090.38 2434.28C1070.84 2432.23 1058.96 2429.29 1053.94 2426.81C1051.46 2425.59 1051.16 2425 1051.16 2425C1051.16 2425 1051.22 2425.59 1051.22 2424.5C1051.22 2424.5 1049.17 2425.3 1056.72 2422C1063.75 2418.92 1077.06 2416.12 1096.66 2416.12C1134.6 2416.12 1142.08 2426.12 1143.91 2429.59C1144.23 2430.22 1144.59 2430.8 1145 2431.38C1149.13 2437.15 1154.76 2439.96 1159.47 2441.47C1164.31 2443.02 1169.01 2443.47 1173.47 2443.47C1176.63 2443.47 1179.35 2443.21 1181.28 2443C1181.28 2443 1181.28 2442.97 1181.28 2442.97C1186.42 2442.42 1191.47 2441.27 1196.41 2438.59C1200.7 2436.26 1208.47 2430.58 1208.47 2419.88C1208.47 2414.9 1206.48 2410.82 1204.47 2408.03C1192.18 2387.87 1162.69 2369.16 1096.66 2369.16Z" fill="#000000" fill-rule="nonzero" opacity="1" stroke="none" vectornator:layerName="Curve 17"/>
<path d="M1395.16 2370.06C1381.34 2370.06 1369.54 2371.3 1359.47 2377.06C1348.46 2383.37 1342.88 2394.97 1342.88 2406.91C1342.88 2438.22 1342.88 2500.84 1342.88 2532.16C1342.88 2542.79 1350.54 2549.79 1356.78 2552.66C1363.01 2555.52 1369.31 2556.16 1375.69 2556.16C1381.96 2556.16 1388.17 2555.49 1394.28 2552.59C1400.37 2549.71 1407.75 2542.74 1407.75 2532.34C1407.75 2520.71 1407.75 2501.81 1407.75 2485.81C1425.02 2485.81 1445.91 2485.81 1458.62 2485.81C1474.68 2485.81 1481.63 2488.47 1488.69 2494.19C1496.2 2500.27 1504.8 2512.18 1517.84 2531.53C1517.92 2531.65 1518.01 2531.79 1518.09 2531.91C1520.35 2535.06 1524.87 2541.37 1527.12 2544.53C1534.45 2554.8 1546.02 2556.16 1553.81 2556.16C1557.13 2556.16 1560.61 2555.92 1564.09 2555.38C1564.11 2555.37 1564.14 2555.38 1564.16 2555.38C1569.23 2554.65 1574.16 2553.28 1578.81 2550.28C1583.35 2547.36 1589.16 2541.35 1589.16 2532.34C1589.16 2527.58 1587.23 2523.26 1585.81 2520.94C1585.51 2520.45 1585.2 2519.99 1584.84 2519.53C1582.67 2516.71 1578.44 2511.25 1576.12 2508.25C1576.04 2508.14 1575.96 2508.05 1575.88 2507.94C1575.86 2507.92 1575.85 2507.89 1575.84 2507.88C1563.91 2491.36 1554.26 2478.52 1544.53 2468.91C1547.45 2467.56 1550.34 2466.17 1553 2464.5C1566.24 2456.2 1576.16 2442.59 1576.16 2425.06C1576.16 2405.75 1563.78 2390.86 1546.59 2382.31C1529.56 2373.84 1507.07 2370.06 1479.53 2370.06C1458.44 2370.06 1416.25 2370.06 1395.16 2370.06ZM1407.75 2417.47C1426.78 2417.47 1459.97 2417.47 1477.38 2417.47C1492.11 2417.47 1501.84 2419.84 1506.41 2422.28C1510.43 2424.44 1510.53 2425.35 1510.53 2427.84C1510.53 2428.16 1510.86 2430.08 1504.97 2433.12C1499.22 2436.1 1488.82 2438.63 1475.19 2438.62C1458.33 2438.62 1429.73 2438.62 1407.75 2438.62C1407.75 2430.95 1407.75 2424.39 1407.75 2417.47Z" fill="#000000" fill-rule="nonzero" opacity="1" stroke="none" vectornator:layerName="Curve 18"/>
</g>
</svg>
