<?xml version="1.0" encoding="UTF-8" standalone="no"?>
<!-- Created with Inkscape (http://www.inkscape.org/) -->

<svg
   width="72in"
   height="36in"
   viewBox="0 0 1828.8 914.4"
   version="1.1"
   id="svg1"
   xml:space="preserve"
   xmlns="http://www.w3.org/2000/svg"
   xmlns:svg="http://www.w3.org/2000/svg"
   xmlns:rdf="http://www.w3.org/1999/02/22-rdf-syntax-ns#"
   xmlns:cc="http://creativecommons.org/ns#"
   xmlns:dc="http://purl.org/dc/elements/1.1/"><defs
     id="defs1" /><metadata
     id="metadata1"><rdf:RDF><cc:Work
         rdf:about=""><dc:format>image/svg+xml</dc:format><dc:type
           rdf:resource="http://purl.org/dc/dcmitype/StillImage" /></cc:Work></rdf:RDF></metadata><path
     d="M 3.0516851,0 C 1.361056,0 0,1.3605095 0,3.0504598 V 911.34954 C 0,913.03949 1.361056,914.4 3.0516851,914.4 H 1825.7483 c 1.6907,0 3.0517,-1.36051 3.0517,-3.05046 V 3.0504598 C 1828.8,1.3605095 1827.439,0 1825.7483,0 Z M 1310.3247,25.904362 c 4.8264,0.05324 9.6617,-0.136493 14.481,0.164331 3.4028,0.2695 6.7756,0.874347 10.0566,1.813326 3.2592,0.942643 6.4134,2.222237 9.4265,3.778064 3.1758,1.697257 6.2039,3.682501 8.9518,6.012036 3.3722,2.807549 6.3393,6.084155 8.879,9.657809 2.0556,2.990005 3.8517,6.167284 5.2282,9.52655 1.3962,3.345933 2.4425,6.843884 3.061,10.416935 1.0335,5.191424 0.7985,10.506768 0.8235,15.769063 0.012,6.369172 -0.028,12.795727 0.022,19.129064 0.051,3.11834 0.4459,6.22442 1.1208,9.26714 0.7254,3.11824 1.773,6.15581 3.1183,9.06042 1.3888,2.92128 3.0698,5.70022 5.0312,8.27237 2.0421,2.63315 4.3484,5.06633 6.9191,7.18871 2.9401,2.46297 6.208,4.52496 9.6762,6.16034 3.1698,1.48471 6.5137,2.59375 9.9378,3.32021 2.9741,0.61283 6.003,0.91298 9.0382,0.95188 108.7579,0.009 217.5159,0.002 326.2739,0.004 4.793,0.0525 9.5951,-0.13457 14.3811,0.16278 3.4351,0.27665 6.8433,0.88381 10.1528,1.84485 3.3512,0.97758 6.6008,2.29817 9.6793,3.94239 3.6199,1.9327 6.9981,4.31015 10.0401,7.06365 2.7892,2.51018 5.2702,5.35344 7.4418,8.41138 1.9736,2.84684 3.6733,5.8816 5.0431,9.06301 1.3608,3.21796 2.4171,6.5659 3.0899,9.99474 0.6291,3.11537 0.9206,6.28685 0.9776,9.46247 v 449.90846 c -10e-4,24.28663 0.1247,48.58256 -0.1,72.86532 -0.01,0.45265 0.01,0.90602 -0.01,1.35857 -0.2247,3.71217 -0.8792,7.39457 -1.8979,10.97039 -0.9878,3.32046 -2.2876,6.54693 -3.9128,9.60665 -1.6393,3.04741 -3.572,5.93617 -5.7943,8.58914 -1.9322,2.30352 -4.27,4.20987 -6.5774,6.13606 -0.8742,0.7297 -1.5695,1.65576 -2.4918,2.3244 -0.809,0.5872 -1.7638,0.93248 -2.6072,1.46916 -2.3881,1.51994 -4.7785,3.05316 -7.3833,4.16099 -3.1901,1.33358 -6.5129,2.34934 -9.9062,3.01119 -3.1313,0.61425 -6.3165,0.89397 -9.5051,0.93947 l -329.275,0.003 c -4.6896,0.0451 -9.4068,-0.20068 -14.0631,0.48731 -2.9668,0.46257 -5.8889,1.18653 -8.7151,2.20297 -3.288,1.19932 -6.4413,2.76933 -9.3711,4.68447 -2.8078,1.85667 -5.4325,4.00019 -7.7526,6.44043 -2.6523,2.72429 -4.9118,5.81573 -6.7925,9.11676 -1.7075,3.05436 -3.0713,6.30174 -4.036,9.66556 -1.0245,3.62309 -1.6267,7.36945 -1.7127,11.13575 -0.095,4.96188 -0.014,9.92731 -0.041,14.89057 -0.046,4.85232 0.1062,9.70873 -0.1076,14.55776 -0.2162,3.7791 -0.8834,7.52873 -1.9303,11.16521 -0.99,3.31939 -2.2969,6.54438 -3.9321,9.59838 -1.6913,3.13157 -3.6894,6.10158 -6.0082,8.80308 -2.8288,3.35394 -6.1233,6.30515 -9.7207,8.8129 -2.851,1.95641 -5.8935,3.62887 -9.0775,4.97644 -3.1889,1.33489 -6.512,2.34794 -9.9046,3.00964 -3.1314,0.61733 -6.3175,0.89554 -9.5067,0.94154 -354.39607,0.008 -708.79271,10e-4 -1063.18888,0.003 -2.50942,-0.0322 -4.95923,0.0719 -7.43665,-0.0553 -3.71368,-0.2242 -7.39753,-0.87881 -10.9748,-1.89704 -3.32179,-0.98731 -6.54955,-2.28677 -9.61051,-3.91139 -3.04929,-1.63858 -5.93673,-3.57504 -8.59517,-5.79138 -3.17656,-2.66337 -6.02636,-5.71141 -8.46127,-9.06611 -2.23522,-3.07076 -4.09922,-6.40597 -5.59622,-9.895 -1.32537,-3.15656 -2.33614,-6.44158 -3.01447,-9.79631 -0.61074,-3.12989 -0.93013,-6.31028 -0.96725,-9.49864 -0.0238,-47.24764 -0.003,-94.49587 -0.0103,-141.7438 0.008,-7.65045 0.0123,-15.30097 0.0124,-22.95157 h 5.2e-4 c 0,-4.96892 -0.0115,-9.93804 0.008,-14.90659 0.0381,-2.13507 0.5734,-4.21635 0.87576,-6.32984 l -5.2e-4,-10e-4 c 0.27478,-1.92128 0.29335,-3.87842 0.79614,-5.75417 0.88651,-3.40878 2.16591,-6.71134 3.74753,-9.85779 1.72709,-3.39384 3.83064,-6.59828 6.27448,-9.51984 2.66418,-3.17548 5.71124,-6.02729 9.06924,-8.45891 3.07213,-2.23365 6.40835,-4.09636 9.89743,-5.59501 3.15714,-1.32663 6.44447,-2.3333 9.80023,-3.01222 3.1312,-0.61441 6.31453,-0.92742 9.50454,-0.96842 34.03052,-0.0279 68.062,0.004 102.09264,-0.016 3.26797,-0.0403 6.53045,-0.39711 9.7201,-1.11105 3.21516,-0.74509 6.35815,-1.81196 9.33755,-3.23184 3.46794,-1.63732 6.71858,-3.7249 9.65755,-6.18774 2.68605,-2.24446 5.08729,-4.82205 7.19316,-7.61555 1.89792,-2.57805 3.53127,-5.34455 4.86573,-8.25376 1.31178,-2.92043 2.31768,-5.9727 3.00569,-9.09816 0.62381,-2.97042 0.96117,-5.99419 1.01119,-9.0289 0.018,-71.38177 0.003,-142.76405 0.008,-214.1461 0.0396,-2.46329 -0.0564,-5.00492 -0.38153,-7.49412 -0.44008,-3.47159 -1.31718,-6.88224 -2.53781,-10.1601 -1.15017,-2.98767 -2.60118,-5.8547 -4.33275,-8.54729 -1.73684,-2.65087 -3.74515,-5.11553 -5.97411,-7.36751 -2.16819,-2.12432 -4.52364,-4.05113 -7.05565,-5.72678 -2.93315,-1.90719 -6.07698,-3.49618 -9.36805,-4.68705 -3.13757,-1.12627 -6.39493,-1.93174 -9.70511,-2.33267 -1.60868,-0.24552 -3.29675,-0.28102 -4.87762,-0.38241 h -92.1761 c -4.74143,-0.0542 -9.49132,0.13912 -14.22552,-0.16846 -3.47774,-0.30008 -6.92886,-0.92902 -10.27481,-1.92444 -3.82856,-1.14947 -7.53301,-2.72566 -10.97842,-4.75578 -3.02709,-1.74323 -5.85796,-3.82742 -8.44577,-6.17326 -2.88813,-2.59935 -5.45242,-5.55582 -7.66721,-8.74624 -1.93768,-2.82254 -3.58673,-5.83863 -4.92158,-8.99015 -1.32356,-3.15692 -2.32873,-6.44495 -2.99584,-9.80147 -0.61265,-3.13058 -0.91389,-6.31365 -0.9533,-9.50226 -0.016,-55.28202 -0.002,-110.56451 -0.007,-165.846725 0.045,-4.849074 -0.1036,-9.70198 0.10184,-14.547949 0.20601,-3.798649 0.8753,-7.568455 1.9252,-11.223604 0.9961,-3.341596 2.30544,-6.59196 3.95742,-9.663493 1.6634,-3.085375 3.63578,-6.006089 5.90537,-8.677506 2.63499,-3.131113 5.66738,-5.919254 8.97826,-8.323007 2.98495,-2.153408 6.21145,-3.966557 9.5862,-5.433776 3.24317,-1.363268 6.61165,-2.435512 10.06597,-3.109371 3.1494,-0.63698 6.35678,-0.915121 9.56657,-0.975651 h 0.004 c 0.10225,-0.004 0.20483,-0.0075 0.30708,-0.01137 z"
     style="stroke-width:0.281894"
     id="path1" /></svg>
