<svg version="1.1" xmlns="http://www.w3.org/2000/svg" viewBox="-33.213071023181996 -1.3008285934498225 66.426142046364 2.6016571868996445" fill="none" stroke="black" stroke-width="0.6%" vector-effect="non-scaling-stroke">
    <path d="M -32.21307 0.01958 L -32.21307 -0.23042 L 0.02283 0.05083 L 32.21307 -0.01958 L -0.02283 -0.30083 L -32.21307 -0.23042" />
    <path d="M 0.02283 0.30083 L 0.02283 0.05083" />
    <path d="M -32.21307 0.01958 L 0.02283 0.30083 L 32.21307 0.23042 L 32.21307 -0.01958" />
    <path d="M 20.59609 -0.11098 L 1.96932 -0.27349 C 1.97 -0.27 1.97 -0.27 1.96351 -0.27353 L 1.96344 -0.27353 C 1.9 -0.27 1.84 -0.27 1.76045 -0.27493 C 1.68 -0.28 1.58 -0.28 1.47352 -0.27624 C 1.36 -0.28 1.24 -0.28 1.11319 -0.27729 C 0.97 -0.28 0.82 -0.28 0.66181 -0.27803 C 0.53 -0.28 0.39 -0.28 0.25212 -0.27827 C 0.11 -0.28 -0.02 -0.28 -0.15796 -0.27814 C -0.31 -0.28 -0.45 -0.28 -0.58716 -0.27757 C -0.76 -0.28 -0.93 -0.28 -1.10129 -0.27646 C -3.05 -0.27 -5 -0.27 -6.94187 -0.26369 C -7.05 -0.26 -7.16 -0.26 -7.25971 -0.26281 C -7.37 -0.26 -7.46 -0.26 -7.55209 -0.26159 C -7.64 -0.26 -7.72 -0.26 -7.78195 -0.26014 C -7.86 -0.26 -7.91 -0.26 -7.95482 -0.25829 C -7.99 -0.26 -8.02 -0.26 -8.02335 -0.25652 C -8.03 -0.26 -8.02 -0.26 -8.02765 -0.25596 C -8.03 -0.26 -8.02 -0.26 -7.99733 -0.25446 C -7.97 -0.25 -7.93 -0.25 -7.88399 -0.25273 C -7.81 -0.25 -7.72 -0.25 -7.63918 -0.25053 L -6.01443 -0.23636 C -5.99 -0.24 -5.96 -0.24 -5.94192 -0.23558 C -5.9 -0.24 -5.87 -0.23 -5.853 -0.23391 C -5.84 -0.23 -5.84 -0.23 -5.84114 -0.23301 C -5.84 -0.23 -5.84 -0.23 -5.85294 -0.2321 C -5.87 -0.23 -5.89 -0.23 -5.93025 -0.23058 C -5.97 -0.23 -6.02 -0.23 -6.08441 -0.22909 C -6.15 -0.23 -6.22 -0.23 -6.30906 -0.22777 C -6.4 -0.23 -6.51 -0.23 -6.62214 -0.22659 C -6.7 -0.23 -6.79 -0.23 -6.87934 -0.22596 C -9.39 -0.22 -11.91 -0.21 -14.42115 -0.20946 C -14.53 -0.21 -14.64 -0.21 -14.75695 -0.20892 C -14.88 -0.21 -15 -0.21 -15.13035 -0.20868 C -15.26 -0.21 -15.38 -0.21 -15.50679 -0.2088 C -15.64 -0.21 -15.78 -0.21 -15.90178 -0.20932 C -16.04 -0.21 -16.17 -0.21 -16.28993 -0.21032 C -16.39 -0.21 -16.49 -0.21 -16.56833 -0.21151 C -16.65 -0.21 -16.72 -0.21 -16.77879 -0.21292 C -17.38 -0.22 -17.98 -0.22 -18.5789 -0.22862 C -18.64 -0.23 -18.7 -0.23 -18.78054 -0.23001 C -18.86 -0.23 -18.96 -0.23 -19.05937 -0.23128 C -19.17 -0.23 -19.3 -0.23 -19.43087 -0.23237 C -19.58 -0.23 -19.73 -0.23 -19.88863 -0.23312 C -20.03 -0.23 -20.18 -0.23 -20.33449 -0.23335 C -20.47 -0.23 -20.61 -0.23 -20.74772 -0.23316 C -20.82 -0.23 -20.89 -0.23 -20.9644 -0.23284 L -20.96442 -0.23284 C -21.04 -0.23 -21.13 -0.23 -21.20278 -0.23249 C -21.38 -0.23 -21.55 -0.23 -21.72789 -0.23134 L -21.7279 -0.23134 C -22 -0.23 -22.27 -0.23 -22.53642 -0.22958 C -24.2 -0.23 -25.86 -0.22 -27.52809 -0.21866 C -27.64 -0.22 -27.75 -0.22 -27.84556 -0.21778 C -27.95 -0.22 -28.05 -0.22 -28.13742 -0.21656 C -28.23 -0.22 -28.32 -0.22 -28.38726 -0.21494 C -28.46 -0.21 -28.52 -0.21 -28.5574 -0.21294 C -28.59 -0.21 -28.61 -0.21 -28.60985 -0.21117 C -28.61 -0.21 -28.6 -0.21 -28.61041 -0.21096 C -28.61 -0.21 -28.6 -0.21 -28.5782 -0.20939 C -28.55 -0.21 -28.51 -0.21 -28.45156 -0.20755 C -28.41 -0.21 -28.37 -0.21 -28.32243 -0.20641 C -22.08 -0.15 -15.83 -0.1 -9.5819 -0.0429 C -9.52 -0.04 -9.46 -0.04 -9.38117 -0.04151 C -9.3 -0.04 -9.2 -0.04 -9.10059 -0.04022 C -9 -0.04 -8.88 -0.04 -8.76533 -0.03921 C -8.61 -0.04 -8.45 -0.04 -8.28362 -0.03839 C -8.15 -0.04 -8.01 -0.04 -7.8677 -0.03815 C -7.73 -0.04 -7.59 -0.04 -7.46036 -0.03828 C -7.31 -0.04 -7.17 -0.04 -7.03312 -0.03885 C -6.86 -0.04 -6.69 -0.04 -6.51854 -0.03995 C -6.34 -0.04 -6.17 -0.04 -5.99341 -0.04109 C -5.86 -0.04 -5.72 -0.04 -5.57104 -0.04169 C -5.44 -0.04 -5.3 -0.04 -5.15951 -0.04181 C -5.01 -0.04 -4.86 -0.04 -4.71871 -0.04147 C -4.59 -0.04 -4.47 -0.04 -4.35524 -0.04077 C -4.24 -0.04 -4.13 -0.04 -4.02509 -0.03969 C -3.94 -0.04 -3.86 -0.04 -3.79389 -0.03852 C -3.69 -0.04 -3.61 -0.04 -3.52884 -0.0364 L 2.27527 0.01424 C 2.33 0.01 2.4 0.02 2.4759 0.01563 C 2.56 0.02 2.65 0.02 2.75656 0.01692 C 2.84 0.02 2.94 0.02 3.03324 0.01774 C 3.07 0.02 3.1 0.02 3.13094 0.01803 C 3.17 0.02 3.22 0.02 3.25672 0.01823 C 3.37 0.02 3.47 0.02 3.58875 0.01877 C 3.72 0.02 3.86 0.02 3.99337 0.019 C 4.13 0.02 4.27 0.02 4.40066 0.01886 C 4.54 0.02 4.69 0.02 4.82047 0.01831 C 4.84 0.02 4.85 0.02 4.86849 0.0182 C 5.73 0.02 6.58 0.01 7.43638 0.01261 L 7.61301 0.0112 C 6.89 0.01 6.16 0.01 5.43523 0.01596 L 5.65733 0.0142 L 7.83511 0.00943 L 8.04682 0.00775 L 5.86904 0.01251 L 11.01424 -0.02844 C 11.02 -0.03 11.06 -0.03 11.0711 -0.02856 L 21.65861 -0.02203 L 21.65864 -0.02203 L 19.48082 -0.01726 L 11.99554 -0.02188 C 11.79 -0.02 11.79 -0.02 11.68444 -0.0212 L 8.04682 0.00775 L 7.8351 0.00943 L 7.613 0.0112 L 7.43637 0.01261 L 23.28101 -0.02205 C 23.39 -0.02 23.5 -0.02 23.59702 -0.02293 C 23.71 -0.02 23.81 -0.02 23.89454 -0.02418 C 23.98 -0.02 24.06 -0.03 24.12483 -0.02565 C 24.19 -0.03 24.25 -0.03 24.28988 -0.02744 C 24.33 -0.03 24.36 -0.03 24.36167 -0.02953 C 24.37 -0.03 24.35 -0.03 24.36236 -0.02976 C 24.37 -0.03 24.35 -0.03 24.3299 -0.03132 C 24.31 -0.03 24.27 -0.03 24.21591 -0.03303 C 24.14 -0.03 24.05 -0.03 23.96815 -0.03525 C 22.05 -0.05 20.13 -0.07 18.21719 -0.08543 C 18.17 -0.09 18.12 -0.09 18.0914 -0.08689 C 18.06 -0.09 18.04 -0.09 18.03316 -0.08867 C 18.03 -0.09 18.04 -0.09 18.03266 -0.08886 C 18.03 -0.09 18.04 -0.09 18.07956 -0.09064 C 18.11 -0.09 18.15 -0.09 18.21076 -0.09226 C 18.27 -0.09 18.34 -0.09 18.41341 -0.09367 C 18.49 -0.09 18.58 -0.09 18.67753 -0.09484 C 18.77 -0.1 18.88 -0.1 18.98414 -0.09573 C 19.21 -0.1 19.43 -0.1 19.65743 -0.09721 C 19.84 -0.1 20.03 -0.1 20.19826 -0.09855 C 20.31 -0.1 20.42 -0.1 20.51116 -0.09982 C 20.61 -0.1 20.69 -0.1 20.75451 -0.10136 C 20.84 -0.1 20.9 -0.1 20.93812 -0.10347 C 20.97 -0.1 20.99 -0.1 20.99206 -0.10531 C 20.99 -0.11 20.98 -0.11 20.99223 -0.10543 C 20.99 -0.11 20.98 -0.11 20.95896 -0.10705 C 20.93 -0.11 20.9 -0.11 20.84555 -0.10874 C 20.77 -0.11 20.68 -0.11 20.59609 -0.11098 L 20.59609 -0.11098 Z" />
    <path d="M 20.59609 -0.10894 L 20.59609 -0.11098" />
    <path d="M 1.96932 -0.27145 L 1.96932 -0.27349" />
    <path d="M 1.96351 -0.2715 L 1.96351 -0.27353" />
    <path d="M 1.96344 -0.2715 L 1.96344 -0.27353" />
    <path d="M 1.76045 -0.27326 L 1.76045 -0.27493" />
    <path d="M 1.47352 -0.27499 L 1.47352 -0.27624" />
    <path d="M 1.11319 -0.27625 L 1.11319 -0.27729" />
    <path d="M 0.66181 -0.27709 L 0.66181 -0.27803" />
    <path d="M -0.15796 -0.27721 L -0.15796 -0.27814" />
    <path d="M -0.58716 -0.27657 L -0.58716 -0.27757" />
    <path d="M -1.10129 -0.27544 L -1.10129 -0.27646" />
    <path d="M -6.94187 -0.26265 L -6.94187 -0.26369" />
    <path d="M -7.25971 -0.26161 L -7.25971 -0.26281" />
    <path d="M -7.55209 -0.26005 L -7.55209 -0.26159" />
    <path d="M -7.78195 -0.25754 L -7.78195 -0.26014" />
    <path d="M -7.95482 -0.25365 L -7.95482 -0.25829" />
    <path d="M -8.02335 -0.2554 L -8.02335 -0.25652" />
    <path d="M -5.85294 -0.22904 L -5.85294 -0.2321" />
    <path d="M -5.93025 -0.22845 L -5.93025 -0.23058" />
    <path d="M -6.08441 -0.22751 L -6.08441 -0.22909" />
    <path d="M -6.30906 -0.2265 L -6.30906 -0.22777" />
    <path d="M -6.62214 -0.22552 L -6.62214 -0.22659" />
    <path d="M -6.87934 -0.22494 L -6.87934 -0.22596" />
    <path d="M -14.42115 -0.20846 L -14.42115 -0.20946" />
    <path d="M -14.75695 -0.20798 L -14.75695 -0.20892" />
    <path d="M -15.13035 -0.20777 L -15.13035 -0.20868" />
    <path d="M -15.50679 -0.20787 L -15.50679 -0.2088" />
    <path d="M -16.28993 -0.2092 L -16.28993 -0.21032" />
    <path d="M -16.56833 -0.21017 L -16.56833 -0.21151" />
    <path d="M -16.77879 -0.21121 L -16.77879 -0.21292" />
    <path d="M -18.5789 -0.22659 L -18.5789 -0.22862" />
    <path d="M -18.78054 -0.22834 L -18.78054 -0.23001" />
    <path d="M -19.05937 -0.23003 L -19.05937 -0.23128" />
    <path d="M -19.43087 -0.23133 L -19.43087 -0.23237" />
    <path d="M -20.33449 -0.23243 L -20.33449 -0.23335" />
    <path d="M -20.74772 -0.23223 L -20.74772 -0.23316" />
    <path d="M -20.9644 -0.23194 L -20.9644 -0.23284" />
    <path d="M -20.96442 -0.23194 L -20.96442 -0.23284" />
    <path d="M -21.20278 -0.23148 L -21.20278 -0.23249" />
    <path d="M -21.72789 -0.23033 L -21.72789 -0.23134" />
    <path d="M -21.7279 -0.23033 L -21.7279 -0.23134" />
    <path d="M -27.52809 -0.21762 L -27.52809 -0.21866" />
    <path d="M -27.84556 -0.21658 L -27.84556 -0.21778" />
    <path d="M -28.13742 -0.21501 L -28.13742 -0.21656" />
    <path d="M -28.5574 -0.20896 L -28.5574 -0.21294" />
    <path d="M -28.60985 -0.21076 L -28.60985 -0.21117" />
    <path d="M 7.61301 0.01222 L 7.61301 0.0112" />
    <path d="M 5.43523 0.01698 L 5.43523 0.01596" />
    <path d="M 8.04682 0.01002 L 8.04682 0.00775" />
    <path d="M 5.86904 0.01373 L 5.86904 0.01251" />
    <path d="M 21.65864 -0.0208 L 21.65864 -0.02203" />
    <path d="M 19.48082 -0.01604 L 19.48082 -0.01726" />
    <path d="M 11.68444 -0.01893 L 11.68444 -0.0212" />
    <path d="M 24.21591 -0.0265 L 24.21591 -0.03303" />
    <path d="M 23.96815 -0.03322 L 23.96815 -0.03525" />
    <path d="M 18.21719 -0.08339 L 18.21719 -0.08543" />
    <path d="M 18.0914 -0.08449 L 18.0914 -0.08689" />
    <path d="M 18.03316 -0.085 L 18.03316 -0.08867" />
    <path d="M 20.95896 -0.10389 L 20.95896 -0.10705" />
    <path d="M 20.84555 -0.10221 L 20.84555 -0.10874" />
    <path d="M 20.59609 -0.10894 L 20.59609 -0.11098" />
    <path d="M 2.78129 -0.26325 L 2.78129 -0.26437 L 2.50943 -0.26413 L 1.73069 -0.27092 L 2.00255 -0.27116 L 1.88601 -0.27218 L 1.61477 -0.27193 L 1.53976 -0.27259 C 1.17 -0.28 0.27 -0.28 -0.47387 -0.27551 L -6.73941 -0.26181 C -7.48 -0.26 -7.78 -0.26 -7.56848 -0.25594 C -7.48 -0.26 -7.78 -0.26 -7.40935 -0.25301 L -5.62101 -0.23741 C -5.06 -0.23 -5.51 -0.23 -5.38232 -0.23301 C -5.06 -0.23 -5.51 -0.23 -6.62592 -0.22421 L -14.22265 -0.2076 C -15.33 -0.21 -16.69 -0.21 -17.24309 -0.21199 L -19.03143 -0.22759 C -19.4 -0.23 -20.3 -0.23 -21.04506 -0.23052" />
    <path d="M 1.78093 -0.2731 C 2.11 -0.27 2.45 -0.27 2.78129 -0.26437" />
    <path d="M 2.50943 -0.26169 L 2.50943 -0.26413" />
    <path d="M 1.73069 -0.26848 L 1.73069 -0.27092" />
    <path d="M 1.61477 -0.26949 L 1.61477 -0.27193" />
    <path d="M -21.04506 -0.22929 L -21.04506 -0.23052" />
    <path d="M -27.3106 -0.21681 L -21.04506 -0.23052" />
    <path d="M -27.3106 -0.21556 L -27.3106 -0.21681 C -28.05 -0.22 -28.35 -0.21 -28.13967 -0.21094 C -28.05 -0.22 -28.35 -0.21 -27.98054 -0.20801 L -27.90754 -0.20738 L -28.11046 -0.20659 L -28.20781 -0.20744 C -28.22 -0.21 -28.23 -0.21 -28.24006 -0.20773 C -28.3 -0.21 -28.34 -0.21 -28.37126 -0.20952 C -28.4 -0.21 -28.41 -0.21 -28.40146 -0.21096 C -28.4 -0.21 -28.41 -0.21 -28.39933 -0.21134 C -28.39 -0.21 -28.36 -0.21 -28.31896 -0.21328 C -28.28 -0.21 -28.23 -0.21 -28.16001 -0.21485 C -28.09 -0.22 -28.01 -0.22 -27.91178 -0.21629 C -27.81 -0.22 -27.69 -0.22 -27.56077 -0.21753 C -27.42 -0.22 -27.27 -0.22 -27.12147 -0.21853" />
    <path d="M -27.90754 -0.20592 L -27.90754 -0.20738" />
    <path d="M -28.11046 -0.20456 L -28.11046 -0.20659" />
    <path d="M -28.20781 -0.20541 L -28.20781 -0.20744" />
    <path d="M -28.24006 -0.20569 L -28.24006 -0.20773" />
    <path d="M -28.37126 -0.20683 L -28.37126 -0.20952" />
    <path d="M -21.465 -0.2309 L -27.12147 -0.21853" />
    <path d="M -21.465 -0.2309 L -21.46494 -0.2309 L -21.11015 -0.23168 C -21.06 -0.23 -21 -0.23 -20.95005 -0.23196 C -20.84 -0.23 -20.73 -0.23 -20.61511 -0.23234 C -20.47 -0.23 -20.32 -0.23 -20.16762 -0.2324 C -20.03 -0.23 -19.9 -0.23 -19.76465 -0.23201 C -19.65 -0.23 -19.54 -0.23 -19.43991 -0.23136 C -19.34 -0.23 -19.24 -0.23 -19.14658 -0.2304 C -19.05 -0.23 -18.95 -0.23 -18.87715 -0.22904 C -18.77 -0.23 -18.7 -0.23 -18.61317 -0.22689 C -18.06 -0.22 -17.51 -0.22 -16.96283 -0.21249 C -16.91 -0.21 -16.84 -0.21 -16.76128 -0.21111 C -16.68 -0.21 -16.58 -0.21 -16.48235 -0.20983 C -16.37 -0.21 -16.24 -0.21 -16.11092 -0.20874 C -15.97 -0.21 -15.82 -0.21 -15.6646 -0.20801 C -15.53 -0.21 -15.39 -0.21 -15.24849 -0.20777 C -15.11 -0.21 -14.98 -0.21 -14.8412 -0.20791 C -14.7 -0.21 -14.56 -0.21 -14.42145 -0.20846 C -14.24 -0.21 -14.07 -0.21 -13.89635 -0.20959 C -11.5 -0.21 -9.11 -0.22 -6.71794 -0.22529 C -6.61 -0.23 -6.5 -0.23 -6.40015 -0.22617 C -6.29 -0.23 -6.2 -0.23 -6.10774 -0.22739 C -6.01 -0.23 -5.92 -0.23 -5.85528 -0.22902 C -5.78 -0.23 -5.72 -0.23 -5.68522 -0.23102 C -5.65 -0.23 -5.63 -0.23 -5.63227 -0.23299 C -5.63 -0.23 -5.65 -0.23 -5.63227 -0.233 C -5.63 -0.23 -5.65 -0.23 -5.67412 -0.23477 C -5.71 -0.24 -5.76 -0.24 -5.82839 -0.23676 C -6.2 -0.24 -6.57 -0.24 -6.94122 -0.24648 L -7.64549 -0.25262 C -7.67 -0.25 -7.7 -0.25 -7.71653 -0.25338 C -7.76 -0.25 -7.79 -0.25 -7.80684 -0.25507 C -7.82 -0.26 -7.82 -0.26 -7.81872 -0.25597 C -7.82 -0.26 -7.82 -0.26 -7.80691 -0.25687 C -7.79 -0.26 -7.77 -0.26 -7.72955 -0.2584 C -7.69 -0.26 -7.64 -0.26 -7.57542 -0.25989 C -7.51 -0.26 -7.44 -0.26 -7.35077 -0.26121 C -7.26 -0.26 -7.15 -0.26 -7.03771 -0.26238 C -6.89 -0.26 -6.72 -0.26 -6.5528 -0.26352 L -0.56952 -0.27661 C -0.52 -0.28 -0.46 -0.28 -0.40942 -0.27689 C -0.3 -0.28 -0.19 -0.28 -0.07448 -0.27727 C 0.07 -0.28 0.22 -0.28 0.37301 -0.27733 C 0.51 -0.28 0.65 -0.28 0.77598 -0.27694 C 0.89 -0.28 1 -0.28 1.10078 -0.27628 C 1.2 -0.28 1.3 -0.28 1.39116 -0.27534 C 1.49 -0.27 1.59 -0.27 1.6635 -0.27397 C 1.71 -0.27 1.74 -0.27 1.78093 -0.2731 L 1.78093 -0.2731" />
    <path d="M -5.67412 -0.23124 L -5.67412 -0.23477" />
    <path d="M -5.82839 -0.22926 L -5.82839 -0.23676" />
    <path d="M -7.64549 -0.25059 L -7.64549 -0.25262" />
    <path d="M -7.71653 -0.25121 L -7.71653 -0.25338" />
    <path d="M -7.80684 -0.252 L -7.80684 -0.25507" />
    <path d="M 3.68169 -0.2554 L 3.68169 -0.25651 L 3.40983 -0.25627 L 2.62535 -0.26311 L 2.89721 -0.26336 C 3.16 -0.26 3.42 -0.26 3.68169 -0.25651" />
    <path d="M 3.40983 -0.25383 L 3.40983 -0.25627" />
    <path d="M 2.62535 -0.26067 L 2.62535 -0.26311" />
    <path d="M 4.57921 -0.24757 L 4.57921 -0.24868 L 4.30735 -0.24844 L 3.52575 -0.25526 L 3.79761 -0.2555 C 4.06 -0.25 4.32 -0.25 4.57921 -0.24868" />
    <path d="M 4.30735 -0.246 L 4.30735 -0.24844" />
    <path d="M 3.52575 -0.25282 L 3.52575 -0.25526" />
    <path d="M 4.69514 -0.24767 C 10 -0.2 15.3 -0.16 20.59915 -0.10892 C 20.65 -0.11 20.69 -0.11 20.72474 -0.10745 C 20.76 -0.11 20.78 -0.11 20.78305 -0.10567 C 20.79 -0.11 20.77 -0.1 20.78354 -0.10548 C 20.79 -0.11 20.77 -0.1 20.73662 -0.10371 C 20.71 -0.1 20.66 -0.1 20.60543 -0.10209 C 20.54 -0.1 20.47 -0.1 20.3829 -0.10057 C 20.3 -0.1 20.21 -0.1 20.10148 -0.09937 C 19.98 -0.1 19.84 -0.1 19.70102 -0.09832 C 19.43 -0.1 19.16 -0.1 18.88477 -0.09653 C 18.76 -0.1 18.65 -0.1 18.54173 -0.09553 C 18.44 -0.1 18.34 -0.09 18.2538 -0.09425 C 18.15 -0.09 18.07 -0.09 18.00517 -0.09249 C 17.93 -0.09 17.88 -0.09 17.85242 -0.09032 C 17.83 -0.09 17.82 -0.09 17.82422 -0.08886 C 17.83 -0.09 17.82 -0.09 17.8261 -0.08847 C 17.83 -0.09 17.85 -0.09 17.8862 -0.08672 C 17.92 -0.09 17.97 -0.09 18.0262 -0.08506 C 18.5 -0.08 18.98 -0.08 19.4615 -0.07254 C 20.24 -0.07 21.03 -0.06 21.80938 -0.05205 L 21.77406 -0.05207 L 21.47464 -0.05226 L 17.77722 -0.08452 L 17.78315 -0.08453 C 17.23 -0.09 17.68 -0.1 17.54445 -0.08892 C 17.23 -0.09 17.68 -0.1 18.78806 -0.09772 L 19.68023 -0.09968 C 20.42 -0.1 20.72 -0.11 20.5093 -0.10554 C 20.42 -0.1 20.72 -0.11 20.35017 -0.10847 L 4.42328 -0.24743 L 4.69514 -0.24767 Z" />
    <path d="M 20.73662 -0.10122 L 20.73662 -0.10371" />
    <path d="M 20.60543 -0.10034 L 20.60543 -0.10209" />
    <path d="M 20.3829 -0.09923 L 20.3829 -0.10057" />
    <path d="M 20.10148 -0.09825 L 20.10148 -0.09937" />
    <path d="M 19.70102 -0.0973 L 19.70102 -0.09832" />
    <path d="M 18.88477 -0.09548 L 18.88477 -0.09653" />
    <path d="M 18.54173 -0.0943 L 18.54173 -0.09553" />
    <path d="M 18.2538 -0.09262 L 18.2538 -0.09425" />
    <path d="M 18.00517 -0.08526 L 18.00517 -0.09249" />
    <path d="M 17.85242 -0.08742 L 17.85242 -0.09032" />
    <path d="M 21.80938 -0.05095 L 21.80938 -0.05205" />
    <path d="M 21.47464 -0.04988 L 21.47464 -0.05226" />
    <path d="M 17.77722 -0.08214 L 17.77722 -0.08452" />
    <path d="M 4.42328 -0.24499 L 4.42328 -0.24743" />
    <path d="M 1.36113 -0.27059 L 1.36113 -0.2717 L 1.34412 -0.27169 L -3.75221 -0.26712 L -0.3619 -0.27454 C 0.26 -0.28 1.01 -0.27 1.31613 -0.2721 L 1.36113 -0.2717" />
    <path d="M 2.25579 -0.26278 L 2.25579 -0.2639 L -7.27289 -0.25536 C -7.34 -0.26 -7.08 -0.26 -7.28241 -0.25603 C -7.34 -0.26 -7.08 -0.26 -6.62744 -0.26083 L -4.61627 -0.26523 L 1.46005 -0.27068 L 1.47706 -0.27069 L 2.25579 -0.2639" />
    <path d="M -7.27289 -0.25182 L -7.27289 -0.25536" />
    <path d="M 3.1562 -0.25493 L 3.1562 -0.25604 L -6.4863 -0.2474 L -7.18572 -0.2535 C -7.2 -0.25 -7.21 -0.25 -7.22261 -0.25429 L 2.37171 -0.26289 L 3.1562 -0.25604" />
    <path d="M -6.4863 -0.24496 L -6.4863 -0.2474" />
    <path d="M -7.18572 -0.25106 L -7.18572 -0.2535" />
    <path d="M -7.22261 -0.25138 L -7.22261 -0.25429" />
    <path d="M 4.05371 -0.2471 L 4.05371 -0.24821 L -5.58878 -0.23957 L -6.37036 -0.24639 L 3.27212 -0.25503 L 4.05371 -0.24821" />
    <path d="M -5.58878 -0.23712 L -5.58878 -0.23957" />
    <path d="M -6.37036 -0.24395 L -6.37036 -0.24639" />
    <path d="M 4.16964 -0.2472 L 20.12654 -0.10798 C 20.44 -0.11 20.19 -0.1 20.25915 -0.10554 C 20.44 -0.11 20.19 -0.1 19.56825 -0.10065 L 18.6761 -0.0987 C 17.44 -0.1 16.94 -0.09 17.29431 -0.08892 C 17.44 -0.1 16.94 -0.09 17.55953 -0.08404 L 21.18163 -0.05244 L 21.1533 -0.05246 L 7.52741 -0.06087 C 7.32 -0.06 7.32 -0.06 7.21631 -0.06019 L 0.59455 -0.00749 L -3.02027 -0.03902 C -3.64 -0.04 -5.14 -0.05 -6.37632 -0.0439 L -7.26847 -0.04195 C -7.89 -0.04 -8.64 -0.04 -8.9465 -0.04439 L -24.9054 -0.18363 L -17.54421 -0.21217 L -17.46672 -0.2115 C -16.85 -0.21 -15.35 -0.2 -14.11068 -0.20662 L -6.51395 -0.22324 C -5.28 -0.23 -4.78 -0.23 -5.13216 -0.23301 C -5.28 -0.23 -4.78 -0.23 -5.39738 -0.2379 L -5.47285 -0.23856 L 4.16964 -0.2472 Z" />
    <path d="M 21.18163 -0.05133 L 21.18163 -0.05244" />
    <path d="M 0.59455 -0.00511 L 0.59455 -0.00749" />
    <path d="M -24.9054 -0.18119 L -24.9054 -0.18363" />
    <path d="M -5.47285 -0.23577 L -5.47285 -0.23856" />
    <path d="M 22.69711 -0.0432 L 22.69711 -0.04431 L 22.66166 -0.04433 L 22.36241 -0.04451 L 21.61074 -0.05107 L 21.91014 -0.05089 L 21.94549 -0.05086 C 22.2 -0.05 22.45 -0.05 22.69711 -0.04431" />
    <path d="M 22.36241 -0.04214 L 22.36241 -0.04451" />
    <path d="M 21.61074 -0.04869 L 21.61074 -0.05107" />
    <path d="M 23.59437 -0.03537 L 23.59437 -0.03648 L 23.55866 -0.0365 L 23.25975 -0.03668 L 22.49848 -0.04332 L 22.79769 -0.04314 L 22.83316 -0.04312 C 23.09 -0.04 23.34 -0.04 23.59437 -0.03648" />
    <path d="M 23.25975 -0.03431 L 23.25975 -0.03668" />
    <path d="M 22.49848 -0.04095 L 22.49848 -0.04332" />
    <path d="M 23.73047 -0.03529 C 23.81 -0.03 23.89 -0.03 23.97097 -0.03319 C 24.02 -0.03 24.07 -0.03 24.09624 -0.03173 C 24.13 -0.03 24.15 -0.03 24.15336 -0.02994 C 24.16 -0.03 24.14 -0.03 24.15348 -0.02989 C 24.16 -0.03 24.14 -0.03 24.12899 -0.02893 L 24.10763 -0.02894 L 23.87035 -0.02909 C 23.9 -0.03 23.85 -0.03 23.8778 -0.02974 C 23.9 -0.03 23.85 -0.03 23.72206 -0.03265 L 23.39585 -0.0355 L 23.69471 -0.03531 L 23.73047 -0.03529 Z" />
    <path d="M 24.12899 -0.02568 L 24.12899 -0.02893" />
    <path d="M 23.87035 -0.02799 L 23.87035 -0.02909" />
    <path d="M 23.72206 -0.02683 L 23.72206 -0.03265" />
    <path d="M 23.39585 -0.03312 L 23.39585 -0.0355" />
    <path d="M 24.09505 -0.02542 L 24.09505 -0.02785 C 24.06 -0.03 24.02 -0.03 23.96352 -0.02627 C 23.91 -0.03 23.85 -0.03 23.77308 -0.02497 C 23.69 -0.02 23.61 -0.02 23.50901 -0.02379 C 23.41 -0.02 23.31 -0.02 23.19384 -0.02288 C 23.11 -0.02 23.03 -0.02 22.944 -0.02234 L 22.48769 -0.02262 L 23.05213 -0.02385 L 23.05214 -0.02385 C 23.43 -0.02 23.71 -0.03 23.82335 -0.02801 L 24.0668 -0.02786 L 24.09505 -0.02785" />
    <path d="M 23.96352 -0.02456 L 23.96352 -0.02627" />
    <path d="M 23.77308 -0.02361 L 23.77308 -0.02497" />
    <path d="M 23.50901 -0.02265 L 23.50901 -0.02379" />
    <path d="M 23.19384 -0.02186 L 23.19384 -0.02288" />
    <path d="M 22.944 -0.02132 L 22.944 -0.02234" />
    <path d="M 22.48769 -0.02151 L 22.48769 -0.02262" />
    <path d="M 22.06938 -0.04359 L 22.06938 -0.04469 L 22.04105 -0.04471 L 8.41516 -0.05312 C 8.21 -0.05 8.21 -0.05 8.10406 -0.05244 L 1.4823 0.00026 L 0.73064 -0.0063 L 7.43556 -0.05966 C 7.44 -0.06 7.48 -0.06 7.49241 -0.05978 L 21.2894 -0.05127 L 21.31772 -0.05125 L 22.06938 -0.04469" />
    <path d="M 1.4823 0.00263 L 1.4823 0.00026" />
    <path d="M 0.73064 -0.00392 L 0.73064 -0.0063" />
    <path d="M 22.96674 -0.03576 L 22.96674 -0.03686 L 22.9384 -0.03688 L 9.31251 -0.04529 C 9.1 -0.05 9.1 -0.05 9.00142 -0.04461 L 2.37966 0.00809 L 1.6184 0.00145 L 8.3233 -0.05191 C 8.33 -0.05 8.36 -0.05 8.38019 -0.05204 L 22.17715 -0.04352 L 22.20548 -0.04351 L 22.96674 -0.03686" />
    <path d="M 2.37966 0.01046 L 2.37966 0.00809" />
    <path d="M 1.6184 0.00382 L 1.6184 0.00145" />
    <path d="M 23.50437 -0.03211 L 23.50437 -0.03217 L 23.49843 -0.03216 C 23.6 -0.03 23.64 -0.03 23.62755 -0.02974 C 23.6 -0.03 23.64 -0.03 23.62229 -0.02924 L 23.60077 -0.02926 L 10.20268 -0.03752 C 9.99 -0.04 9.99 -0.04 9.89158 -0.03684 L 3.38053 0.01497 C 3.19 0.01 3.03 0.01 2.9305 0.01283 L 2.92457 0.01284 L 2.51577 0.00928 L 9.22066 -0.04409 C 9.23 -0.04 9.26 -0.04 9.27755 -0.04421 L 23.07452 -0.03569 L 23.10284 -0.03568 L 23.50437 -0.03217" />
    <path d="M 23.62229 -0.02607 L 23.62229 -0.02924" />
    <path d="M 3.38053 0.01724 L 3.38053 0.01497" />
    <path d="M 2.9305 0.01474 L 2.9305 0.01283" />
    <path d="M 2.92457 0.01471 L 2.92457 0.01284" />
    <path d="M 2.51577 0.01165 L 2.51577 0.00928" />
    <path d="M 23.57604 -0.02578 L 23.57604 -0.02817 C 23.48 -0.03 23.25 -0.03 22.94015 -0.02483 L 22.94014 -0.02483 L 22.05202 -0.02289 L 11.10608 -0.02964 C 10.9 -0.03 10.9 -0.03 10.79499 -0.02896 L 5.47559 0.01337 L 4.60853 0.01527 L 4.60854 0.01527 C 4.3 0.02 3.94 0.02 3.62179 0.01532 L 10.11084 -0.03632 C 10.12 -0.04 10.15 -0.04 10.1677 -0.03644 L 23.52052 -0.0282 L 23.57604 -0.02817" />
    <path d="M 22.94015 -0.02361 L 22.94015 -0.02483" />
    <path d="M 22.94014 -0.02361 L 22.94014 -0.02483" />
    <path d="M 22.05202 -0.02166 L 22.05202 -0.02289" />
    <path d="M 5.47559 0.01564 L 5.47559 0.01337" />
    <path d="M 4.60853 0.01646 L 4.60853 0.01527" />
    <path d="M 4.60854 0.01646 L 4.60854 0.01527" />
    <path d="M 3.62179 0.01664 L 3.62179 0.01532" />
    <path d="M 22.55066 -0.02046 L 22.55066 -0.02148 C 21.82 -0.02 21.1 -0.02 20.37327 -0.01671 L 19.91657 -0.01699 L 19.91655 -0.01699 L 22.09436 -0.02176 L 22.55066 -0.02148" />
    <path d="M 20.37327 -0.01569 L 20.37327 -0.01671" />
    <path d="M 19.91657 -0.01589 L 19.91657 -0.01699" />
    <path d="M 19.91655 -0.01589 L 19.91655 -0.01699" />
    <path d="M 19.97986 -0.01483 L 19.97986 -0.01585 L 8.00646 0.01034 L 8.22855 0.00857 L 8.22854 0.00857 L 19.52304 -0.01613 L 19.52307 -0.01613 L 19.97986 -0.01585" />
    <path d="M 8.00646 0.01136 L 8.00646 0.01034" />
    <path d="M 19.08742 -0.01518 L 19.08742 -0.0164 L 8.44032 0.00689 L 11.90368 -0.02068 C 11.91 -0.02 11.94 -0.02 11.96054 -0.0208 L 19.08742 -0.0164" />
    <path d="M 8.44032 0.00811 L 8.44032 0.00689" />
    <path d="M -18.55765 -0.21955 L -18.55765 -0.22102 L -25.91884 -0.19247 L -26.70333 -0.19931 L -19.37975 -0.22771 C -19.33 -0.23 -19.29 -0.23 -19.25506 -0.2271 L -18.55765 -0.22102" />
    <path d="M -25.91884 -0.19003 L -25.91884 -0.19247" />
    <path d="M -26.70333 -0.19687 L -26.70333 -0.19931" />
    <path d="M -17.66013 -0.21172 L -17.66013 -0.21319 L -25.02133 -0.18464 L -25.80292 -0.19146 L -18.44172 -0.22 L -17.66013 -0.21319" />
    <path d="M -25.02133 -0.1822 L -25.02133 -0.18464" />
    <path d="M -25.80292 -0.18902 L -25.80292 -0.19146" />
    <path d="M -19.54581 -0.22707 L -19.54581 -0.22853 L -26.81924 -0.20032 L -27.59799 -0.20712 L -22.95925 -0.22511 L -20.93309 -0.22954 C -20.47 -0.23 -19.92 -0.23 -19.54581 -0.22853" />
    <path d="M -26.81924 -0.19788 L -26.81924 -0.20032" />
    <path d="M -27.59799 -0.20468 L -27.59799 -0.20712" />
    <path d="M 5.26388 0.01735 L 5.26388 0.01506 L 5.04178 0.01682 C 4.97 0.02 4.9 0.02 4.82461 0.0173 C 4.72 0.02 4.6 0.02 4.489 0.01784 C 4.36 0.02 4.22 0.02 4.08031 0.01809 C 3.95 0.02 3.82 0.02 3.69283 0.01793 C 3.58 0.02 3.47 0.02 3.35631 0.01744 L 3.48341 0.01643 C 3.88 0.02 4.33 0.02 4.72051 0.01624 L 4.72051 0.01624 L 5.26388 0.01506" />
    <path d="M 5.04178 0.01783 L 5.04178 0.01682" />
    <path d="M 4.82461 0.0183 L 4.82461 0.0173" />
    <path d="M 4.489 0.01878 L 4.489 0.01784" />
    <path d="M 4.08031 0.019 L 4.08031 0.01809" />
    <path d="M 3.69283 0.01886 L 3.69283 0.01793" />
    <path d="M 3.35631 0.01842 L 3.35631 0.01744" />
    <path d="M -23.82331 -0.22176 L -23.82331 -0.22322 L -27.71392 -0.20813 L -27.75691 -0.2085 C -28.07 -0.21 -27.82 -0.21 -27.88952 -0.21095 C -28.07 -0.21 -27.82 -0.21 -27.19862 -0.21583 L -23.82331 -0.22322" />
    <path d="M -27.71392 -0.20569 L -27.71392 -0.20813" />
    <path d="M 3.25959 0.01823 L 3.25959 0.01594 L 3.13422 0.01693 C 3.06 0.02 2.98 0.02 2.91827 0.01633 C 2.83 0.02 2.74 0.02 2.66608 0.01522 C 2.59 0.01 2.52 0.01 2.46708 0.01388 C 2.38 0.01 2.3 0.01 2.21439 0.01167 L 2.37339 0.01041 L 2.70689 0.01332 C 2.83 0.01 3.02 0.02 3.25959 0.01594 L 3.25959 0.01594" />
    <path d="M 3.13422 0.01803 L 3.13422 0.01693" />
    <path d="M 2.91827 0.01743 L 2.91827 0.01633" />
    <path d="M 2.66608 0.01656 L 2.66608 0.01522" />
    <path d="M 2.46708 0.01558 L 2.46708 0.01388" />
    <path d="M 2.21439 0.01371 L 2.21439 0.01167" />
    <path d="M 3.25959 0.01823 L 3.25959 0.01594" />
    <path d="M 0.45217 -0.00408 L 0.45217 -0.00635 L 0.29289 -0.00509 C -0.96 -0.02 -2.22 -0.03 -3.47837 -0.03799 C -3.54 -0.04 -3.6 -0.04 -3.6795 -0.03937 C -3.76 -0.04 -3.86 -0.04 -3.95778 -0.04065 C -4.07 -0.04 -4.2 -0.04 -4.32863 -0.04175 C -4.47 -0.04 -4.63 -0.04 -4.78989 -0.0425 C -4.94 -0.04 -5.09 -0.04 -5.23977 -0.04273 C -5.38 -0.04 -5.51 -0.04 -5.64905 -0.04255 C -5.81 -0.04 -5.96 -0.04 -6.10412 -0.04187 C -6.42 -0.04 -6.73 -0.04 -7.04692 -0.03982 C -7.17 -0.04 -7.29 -0.04 -7.41798 -0.03925 C -7.56 -0.04 -7.71 -0.04 -7.86343 -0.03906 C -8 -0.04 -8.14 -0.04 -8.27163 -0.03932 C -8.39 -0.04 -8.5 -0.04 -8.60626 -0.03987 C -8.71 -0.04 -8.82 -0.04 -8.91445 -0.04073 C -9.02 -0.04 -9.12 -0.04 -9.20774 -0.04202 C -9.3 -0.04 -9.38 -0.04 -9.44133 -0.04371 L -25.30195 -0.18209 L -25.09903 -0.18287 L -9.17012 -0.0439 C -8.8 -0.04 -7.9 -0.04 -7.15649 -0.04097 L -6.26433 -0.04293 C -5.15 -0.05 -3.8 -0.04 -3.24389 -0.03854 L -3.23797 -0.03855 L 0.45217 -0.00635" />
    <path d="M 0.29289 -0.00305 L 0.29289 -0.00509" />
    <path d="M -3.47837 -0.03596 L -3.47837 -0.03799" />
    <path d="M -3.6795 -0.0377 L -3.6795 -0.03937" />
    <path d="M -3.95778 -0.0394 L -3.95778 -0.04065" />
    <path d="M -4.32863 -0.0407 L -4.32863 -0.04175" />
    <path d="M -4.78989 -0.04156 L -4.78989 -0.0425" />
    <path d="M -5.23977 -0.04182 L -5.23977 -0.04273" />
    <path d="M -5.64905 -0.04161 L -5.64905 -0.04255" />
    <path d="M -6.10412 -0.04086 L -6.10412 -0.04187" />
    <path d="M -7.04692 -0.03882 L -7.04692 -0.03982" />
    <path d="M -7.41798 -0.03832 L -7.41798 -0.03925" />
    <path d="M -7.86343 -0.03815 L -7.86343 -0.03906" />
    <path d="M -8.27163 -0.03838 L -8.27163 -0.03932" />
    <path d="M -8.60626 -0.03887 L -8.60626 -0.03987" />
    <path d="M -8.91445 -0.03961 L -8.91445 -0.04073" />
    <path d="M -9.20774 -0.04066 L -9.20774 -0.04202" />
    <path d="M -9.44133 -0.04187 L -9.44133 -0.04371" />
    <path d="M -25.30195 -0.18005 L -25.30195 -0.18209" />
    <path d="M 1.33994 0.00366 L 1.33994 0.00139 L 1.18073 0.00266 C 1.08 0 0.99 0 0.88873 0.00011 C 0.74 0 0.58 0 0.42899 -0.0039 L 0.429 -0.0039 L 0.58827 -0.00517 L 1.33994 0.00139" />
    <path d="M 1.18073 0.00469 L 1.18073 0.00266" />
    <path d="M 0.42899 -0.00187 L 0.42899 -0.0039" />
    <path d="M 2.23729 0.01149 L 2.23729 0.00922 L 2.07826 0.01049 C 1.82 0.01 1.57 0.01 1.31686 0.00385 L 1.47602 0.00258 L 2.23729 0.00922" />
    <path d="M 2.07826 0.01252 L 2.07826 0.01049" />
    <path d="M 1.31686 0.00588 L 1.31686 0.00385" />
    <path d="M -27.01288 -0.19811 L -27.01288 -0.19957 L -27.2158 -0.19879 L -27.99454 -0.20558 L -27.79162 -0.20637 L -27.01288 -0.19957" />
    <path d="M -27.2158 -0.19675 L -27.2158 -0.19879" />
    <path d="M -27.99454 -0.20355 L -27.99454 -0.20558" />
    <path d="M -26.11247 -0.19026 L -26.11247 -0.19172 L -26.3154 -0.19093 L -27.09988 -0.19777 L -26.89696 -0.19856 L -26.11247 -0.19172" />
    <path d="M -26.3154 -0.1889 L -26.3154 -0.19093" />
    <path d="M -27.09988 -0.19574 L -27.09988 -0.19777" />
    <path d="M -25.21496 -0.18242 L -25.21496 -0.18389 L -25.41788 -0.1831 L -26.19948 -0.18992 L -25.99656 -0.19071 L -25.21496 -0.18389" />
    <path d="M -25.41788 -0.18107 L -25.41788 -0.1831" />
    <path d="M -26.19948 -0.18789 L -26.19948 -0.18992" />
    <path d="M -12.48746 -0.12303 C -12.48 -0.12 -12.51 -0.12 -12.48722 -0.12311 C -12.48 -0.12 -12.51 -0.12 -12.55515 -0.12435 C -12.65 -0.13 -12.83 -0.13 -13.05149 -0.12589 C -13.07 -0.13 -13.1 -0.13 -13.12275 -0.12593 C -13.06 -0.13 -13.06 -0.13 -13.07626 -0.12695 C -13.06 -0.13 -13.06 -0.13 -13.14203 -0.12815 C -13.26 -0.13 -13.52 -0.13 -13.78145 -0.1296 C -14.04 -0.13 -14.34 -0.13 -14.68308 -0.1284 C -14.95 -0.13 -15.48 -0.13 -15.74026 -0.12609 C -15.91 -0.13 -16.05 -0.13 -16.13909 -0.12473 C -16.24 -0.12 -16.23 -0.12 -16.21061 -0.12366 C -16.24 -0.12 -16.23 -0.12 -16.15473 -0.12266 C -15.98 -0.12 -15.63 -0.12 -15.45242 -0.11653 C -15.38 -0.12 -15.24 -0.12 -15.06426 -0.11536 C -14.9 -0.12 -14.75 -0.12 -14.57756 -0.11594 C -14.3 -0.12 -13.75 -0.12 -13.47107 -0.11836 C -13.11 -0.12 -12.83 -0.12 -12.66365 -0.12101 C -12.57 -0.12 -12.51 -0.12 -12.49228 -0.12276 C -12.49 -0.12 -12.48 -0.12 -12.46204 -0.1222 C -12.4 -0.12 -12.28 -0.12 -12.21501 -0.12151 C -12.14 -0.12 -12.07 -0.12 -11.99672 -0.12163 C -12 -0.12 -12 -0.12 -11.99594 -0.12163 C -11.96 -0.12 -11.91 -0.12 -11.87228 -0.12185 C -11.77 -0.12 -11.63 -0.12 -11.61424 -0.12327 C -11.61 -0.12 -11.61 -0.12 -11.61479 -0.12324 C -11.6 -0.12 -11.56 -0.12 -11.53841 -0.12572 C -11.16 -0.13 -10.57 -0.13 -10.19083 -0.12866 C -10.03 -0.13 -9.81 -0.13 -9.68467 -0.12746 C -9.68 -0.13 -9.68 -0.13 -9.6841 -0.12746 C -9.68 -0.13 -9.68 -0.13 -9.68137 -0.12745 C -9.52 -0.13 -9.36 -0.13 -9.26375 -0.12754 C -9.23 -0.13 -9.19 -0.13 -9.15619 -0.12783 C -9.1 -0.13 -9.05 -0.13 -9.00678 -0.12848 C -8.97 -0.13 -8.91 -0.13 -8.94903 -0.12926 C -8.97 -0.13 -8.91 -0.13 -8.9786 -0.12979 C -9.01 -0.13 -9.08 -0.13 -9.13227 -0.13039 C -9.12 -0.13 -9.12 -0.13 -9.11028 -0.13035 C -9.63 -0.13 -10.66 -0.13 -11.17093 -0.13503 C -11.37 -0.14 -11.58 -0.14 -11.74251 -0.13484 C -11.9 -0.13 -12.08 -0.13 -12.11026 -0.13298 C -12.11 -0.13 -12.11 -0.13 -12.11103 -0.13296 C -12.11 -0.13 -12.11 -0.13 -12.11104 -0.13296 C -12.11 -0.13 -12.11 -0.13 -12.11104 -0.13296 C -12.21 -0.13 -12.39 -0.13 -12.48746 -0.12303 Z" />
    <path d="M -6.34333 -0.13735 C -6.33 -0.14 -6.32 -0.14 -6.32166 -0.13728 C -6.31 -0.14 -6.31 -0.14 -6.29681 -0.13719 C -6.18 -0.14 -5.98 -0.14 -5.69029 -0.13638 C -5.4 -0.14 -5.03 -0.14 -4.50066 -0.13798 C -4.08 -0.14 -3.77 -0.14 -3.58304 -0.14092 C -3.4 -0.14 -3.3 -0.14 -3.36954 -0.14322 C -3.4 -0.14 -3.3 -0.14 -3.42963 -0.14433 C -3.49 -0.14 -3.59 -0.15 -3.70761 -0.14556 C -3.83 -0.15 -3.96 -0.15 -4.09463 -0.14588 C -4.37 -0.15 -4.68 -0.15 -5.05251 -0.14484 C -5.05 -0.14 -5.05 -0.14 -5.05375 -0.14484 C -5.14 -0.14 -5.32 -0.14 -5.40313 -0.14427 C -5.4 -0.14 -5.4 -0.14 -5.40369 -0.14427 C -5.66 -0.14 -5.83 -0.14 -5.90288 -0.14368 C -5.94 -0.14 -5.95 -0.14 -5.94868 -0.14371 C -5.95 -0.14 -5.94 -0.14 -5.94726 -0.1437 C -5.95 -0.14 -5.94 -0.14 -5.95104 -0.14374 C -5.95 -0.14 -5.97 -0.14 -5.95368 -0.14372 C -5.95 -0.14 -5.97 -0.14 -5.89826 -0.14402 C -5.83 -0.14 -5.68 -0.14 -5.43864 -0.14542 C -4.97 -0.15 -4.81 -0.15 -4.76783 -0.14598 C -4.76 -0.15 -4.75 -0.15 -4.74315 -0.14591 C -4.66 -0.15 -4.57 -0.15 -4.50061 -0.14576 C -4.43 -0.15 -4.37 -0.15 -4.31424 -0.14603 C -4.27 -0.15 -4.24 -0.15 -4.22013 -0.14627 C -4.22 -0.15 -4.22 -0.15 -4.22032 -0.14627 C -4.16 -0.15 -4.1 -0.15 -4.0596 -0.14692 C -4.02 -0.15 -3.96 -0.15 -3.99658 -0.14773 C -4.02 -0.15 -3.96 -0.15 -4.02615 -0.14826 C -4.06 -0.15 -4.11 -0.15 -4.14956 -0.14879 C -4.43 -0.15 -4.91 -0.15 -5.73076 -0.14797 C -6.17 -0.15 -6.46 -0.15 -6.6398 -0.14505 C -6.81 -0.14 -6.88 -0.14 -6.82567 -0.14297 C -6.81 -0.14 -6.88 -0.14 -6.77063 -0.14194 C -6.72 -0.14 -6.63 -0.14 -6.5239 -0.14078 C -6.42 -0.14 -6.29 -0.14 -6.1679 -0.1404 C -5.92 -0.14 -5.63 -0.14 -5.26499 -0.14133 C -5.17 -0.14 -4.98 -0.14 -4.88617 -0.14193 C -4.89 -0.14 -4.89 -0.14 -4.88542 -0.14194 C -4.61 -0.14 -4.43 -0.14 -4.3302 -0.14259 C -4.28 -0.14 -4.26 -0.14 -4.26104 -0.14256 C -4.26 -0.14 -4.26 -0.14 -4.25264 -0.14251 C -4.25 -0.14 -4.23 -0.14 -4.25004 -0.14248 C -4.25 -0.14 -4.23 -0.14 -4.32204 -0.14199 C -4.41 -0.14 -4.58 -0.14 -4.81645 -0.14049 C -5.13 -0.14 -5.32 -0.14 -5.43068 -0.13963 C -5.54 -0.14 -5.58 -0.14 -5.64403 -0.13995 C -5.65 -0.14 -5.65 -0.14 -5.64838 -0.13997 C -5.74 -0.14 -5.84 -0.14 -5.90783 -0.1402 C -5.98 -0.14 -6.04 -0.14 -6.10216 -0.13992 C -6.14 -0.14 -6.17 -0.14 -6.19241 -0.13969 C -6.19 -0.14 -6.2 -0.14 -6.19949 -0.13967 C -6.26 -0.14 -6.31 -0.14 -6.35994 -0.13901 C -6.39 -0.14 -6.43 -0.14 -6.42192 -0.1382 C -6.39 -0.14 -6.43 -0.14 -6.4214 -0.13813 C -6.48 -0.14 -6.56 -0.14 -6.66442 -0.13909 C -6.78 -0.14 -6.92 -0.14 -7.05146 -0.13941 C -7.32 -0.14 -7.63 -0.14 -8.00937 -0.13837 C -8.01 -0.14 -8.01 -0.14 -8.01054 -0.13837 C -8.1 -0.14 -8.27 -0.14 -8.36002 -0.1378 C -8.36 -0.14 -8.36 -0.14 -8.36059 -0.1378 C -8.62 -0.14 -8.78 -0.14 -8.85936 -0.13722 C -8.9 -0.14 -8.91 -0.14 -8.90517 -0.13724 C -8.91 -0.14 -8.9 -0.14 -8.90374 -0.13723 C -8.91 -0.14 -8.9 -0.14 -8.90751 -0.13727 C -8.91 -0.14 -8.93 -0.14 -8.91014 -0.13726 C -8.91 -0.14 -8.93 -0.14 -8.85473 -0.13755 C -8.79 -0.14 -8.64 -0.14 -8.39513 -0.13896 C -7.92 -0.14 -7.77 -0.14 -7.72471 -0.13951 C -7.72 -0.14 -7.71 -0.14 -7.69999 -0.13944 C -7.61 -0.14 -7.52 -0.14 -7.45708 -0.13929 C -7.39 -0.14 -7.33 -0.14 -7.2707 -0.13956 C -7.23 -0.14 -7.2 -0.14 -7.17696 -0.1398 C -7.18 -0.14 -7.18 -0.14 -7.17715 -0.1398 C -7.12 -0.14 -7.06 -0.14 -7.01648 -0.14045 C -6.98 -0.14 -6.92 -0.14 -6.95342 -0.14126 C -6.98 -0.14 -6.92 -0.14 -6.983 -0.14179 C -7.01 -0.14 -7.06 -0.14 -7.10641 -0.14233 C -7.38 -0.14 -7.87 -0.14 -8.68725 -0.14151 C -9.13 -0.14 -9.42 -0.14 -9.59622 -0.13858 C -9.77 -0.14 -9.84 -0.14 -9.78245 -0.1365 C -9.77 -0.14 -9.84 -0.14 -9.72747 -0.13547 C -9.67 -0.13 -9.59 -0.13 -9.48074 -0.13431 C -9.37 -0.13 -9.25 -0.13 -9.12476 -0.13394 C -8.87 -0.13 -8.58 -0.13 -8.22177 -0.13486 C -8.13 -0.14 -7.94 -0.14 -7.84302 -0.13547 C -7.84 -0.14 -7.84 -0.14 -7.84225 -0.13547 C -7.57 -0.14 -7.38 -0.14 -7.28697 -0.13613 C -7.24 -0.14 -7.22 -0.14 -7.21782 -0.1361 C -7.22 -0.14 -7.22 -0.14 -7.20948 -0.13604 C -7.21 -0.14 -7.19 -0.14 -7.20688 -0.13601 C -7.21 -0.14 -7.19 -0.14 -7.2789 -0.13552 C -7.36 -0.14 -7.53 -0.13 -7.77327 -0.13402 C -8.08 -0.13 -8.28 -0.13 -8.38754 -0.13316 C -8.49 -0.13 -8.54 -0.13 -8.60082 -0.13349 C -8.6 -0.13 -8.6 -0.13 -8.60527 -0.1335 C -8.7 -0.13 -8.8 -0.13 -8.86469 -0.13373 C -8.94 -0.13 -9 -0.13 -9.05906 -0.13346 C -9.1 -0.13 -9.13 -0.13 -9.14931 -0.13323 C -9.15 -0.13 -9.15 -0.13 -9.15632 -0.13321 C -9.22 -0.13 -9.27 -0.13 -9.31678 -0.13254 C -9.36 -0.13 -9.41 -0.13 -9.37837 -0.13173 C -9.36 -0.13 -9.41 -0.13 -9.34867 -0.1312 C -9.31 -0.13 -9.28 -0.13 -9.27812 -0.13081 C -9.27 -0.13 -9.26 -0.13 -9.25326 -0.13072 C -9.13 -0.13 -8.94 -0.13 -8.64712 -0.12992 C -8.36 -0.13 -7.98 -0.13 -7.45745 -0.13151 C -7.04 -0.13 -6.73 -0.13 -6.53994 -0.13446 C -6.38 -0.14 -6.29 -0.14 -6.32635 -0.13675 C -6.38 -0.14 -6.29 -0.14 -6.34333 -0.13735 Z" />
    <path d="M -16.48346 -0.12561 C -16.64 -0.13 -16.84 -0.13 -16.917 -0.12624 C -17 -0.13 -16.93 -0.13 -16.95129 -0.12687 C -17 -0.13 -16.93 -0.13 -16.77278 -0.12813 L 9.47453 -0.18554 C 9.63 -0.19 9.83 -0.19 9.9082 -0.18491 C 9.99 -0.18 9.92 -0.18 9.94245 -0.18428 C 9.99 -0.18 9.92 -0.18 9.76385 -0.18302 L -16.48346 -0.12561 Z" />
    <path d="M -14.84724 -0.11133 C -15.01 -0.11 -15.2 -0.11 -15.28085 -0.11196 C -15.36 -0.11 -15.3 -0.11 -15.3151 -0.11259 C -15.36 -0.11 -15.3 -0.11 -15.13657 -0.11385 L 11.11075 -0.17127 C 11.27 -0.17 11.46 -0.17 11.54435 -0.17064 C 11.62 -0.17 11.56 -0.17 11.57864 -0.17001 C 11.62 -0.17 11.56 -0.17 11.40007 -0.16874 L -14.84724 -0.11133 Z" />
    <path d="M 1.39275 -0.15258 C 1.36 -0.15 1.32 -0.15 1.29046 -0.15303 C 1.28 -0.15 1.28 -0.15 1.26964 -0.15308 C 1.23 -0.15 1.14 -0.15 1.09113 -0.15345 C 1.09 -0.15 1.09 -0.15 1.08622 -0.15346 C 1.09 -0.15 1.09 -0.15 1.08535 -0.15347 C 0.83 -0.15 0.63 -0.15 0.45395 -0.15473 C 0.48 -0.15 0.51 -0.16 0.53174 -0.1552 C 0.64 -0.16 0.68 -0.16 0.63887 -0.15678 C 0.64 -0.16 0.68 -0.16 0.57413 -0.15797 C 0.45 -0.16 0.21 -0.16 -0.05917 -0.15949 C -0.32 -0.16 -0.63 -0.16 -0.9685 -0.15833 C -1.23 -0.16 -1.75 -0.16 -2.01669 -0.15604 C -2.19 -0.16 -2.33 -0.16 -2.41655 -0.15469 C -2.51 -0.15 -2.51 -0.15 -2.49135 -0.1536 C -2.51 -0.15 -2.51 -0.15 -2.43697 -0.15262 C -2.24 -0.15 -1.85 -0.15 -1.65783 -0.14582 C -1.59 -0.15 -1.45 -0.15 -1.35762 -0.14508 C -1.26 -0.15 -1.18 -0.15 -1.10091 -0.14541 C -1.02 -0.15 -0.95 -0.15 -0.89217 -0.14611 C -0.83 -0.15 -0.79 -0.15 -0.81992 -0.147 C -0.83 -0.15 -0.79 -0.15 -0.85079 -0.14757 C -0.92 -0.15 -1.04 -0.15 -1.14023 -0.1501 C -0.93 -0.15 -0.67 -0.15 -0.50824 -0.15148 C -0.31 -0.15 -0.21 -0.15 -0.08253 -0.15184 C 0.05 -0.15 0.23 -0.15 0.5119 -0.15061 C 0.51 -0.15 0.52 -0.15 0.51737 -0.15059 C 0.57 -0.15 0.66 -0.15 0.70806 -0.15015 C 0.86 -0.15 1.02 -0.15 1.11199 -0.15025 C 1.15 -0.15 1.19 -0.15 1.23486 -0.15057 C 1.24 -0.15 1.24 -0.15 1.23573 -0.15057 C 1.29 -0.15 1.35 -0.15 1.38601 -0.15125 C 1.42 -0.15 1.46 -0.15 1.43233 -0.15196 C 1.42 -0.15 1.46 -0.15 1.41026 -0.15243 C 1.47 -0.15 1.58 -0.15 1.64628 -0.15183 C 1.72 -0.15 1.79 -0.15 1.86461 -0.15195 C 1.86 -0.15 1.87 -0.15 1.86536 -0.15195 C 1.91 -0.15 1.95 -0.15 1.98873 -0.15217 C 2.09 -0.15 2.23 -0.15 2.24672 -0.15359 C 2.25 -0.15 2.25 -0.15 2.24617 -0.15356 C 2.27 -0.15 2.3 -0.16 2.32296 -0.15604 C 2.7 -0.16 3.29 -0.16 3.67055 -0.15898 C 3.83 -0.16 4.05 -0.16 4.17662 -0.15778 C 4.18 -0.16 4.18 -0.16 4.17718 -0.15778 C 4.18 -0.16 4.18 -0.16 4.17998 -0.15777 C 4.34 -0.16 4.5 -0.16 4.59721 -0.15786 C 4.64 -0.16 4.67 -0.16 4.7051 -0.15815 C 4.76 -0.16 4.81 -0.16 4.8544 -0.1588 C 4.89 -0.16 4.95 -0.16 4.91187 -0.15958 C 4.89 -0.16 4.95 -0.16 4.88237 -0.16011 C 4.85 -0.16 4.79 -0.16 4.72813 -0.16071 C 4.74 -0.16 4.74 -0.16 4.75063 -0.16067 C 4.24 -0.16 3.21 -0.16 2.6904 -0.16535 C 2.49 -0.17 2.28 -0.17 2.1184 -0.16516 C 1.96 -0.16 1.79 -0.16 1.75111 -0.1633 C 1.75 -0.16 1.75 -0.16 1.7503 -0.16328 C 1.75 -0.16 1.75 -0.16 1.7503 -0.16328 C 1.66 -0.16 1.47 -0.16 1.37176 -0.15331 C 1.37 -0.15 1.37 -0.15 1.36953 -0.15323 C 1.37 -0.15 1.37 -0.15 1.36862 -0.15313 C 1.37 -0.15 1.37 -0.15 1.39275 -0.15258 Z" />
    <path d="M 6.83343 -0.17381 C 6.78 -0.17 6.68 -0.17 6.57843 -0.17452 C 6.48 -0.17 6.39 -0.17 6.31215 -0.17425 C 5.87 -0.17 4.98 -0.17 4.5337 -0.17036 C 4.36 -0.17 4.22 -0.17 4.13403 -0.16903 C 4.04 -0.17 4.04 -0.17 4.05789 -0.16793 C 4.04 -0.17 4.04 -0.17 4.11193 -0.16696 C 4.31 -0.17 4.7 -0.16 4.89243 -0.16015 C 4.96 -0.16 5.1 -0.16 5.19047 -0.15941 C 5.29 -0.16 5.37 -0.16 5.44475 -0.15972 C 5.52 -0.16 5.6 -0.16 5.65754 -0.16042 C 5.72 -0.16 5.77 -0.16 5.73503 -0.16135 C 5.72 -0.16 5.77 -0.16 5.70432 -0.16191 C 5.63 -0.16 5.51 -0.16 5.4038 -0.16453 C 5.82 -0.17 6.43 -0.17 6.77041 -0.16752 C 6.85 -0.17 6.92 -0.17 6.97219 -0.16829 C 7.02 -0.17 7.04 -0.17 7.02064 -0.16904 C 7.02 -0.17 7.04 -0.17 6.98973 -0.16961 C 6.94 -0.17 6.84 -0.17 6.73847 -0.17037 C 6.64 -0.17 6.55 -0.17 6.47319 -0.17011 C 6.13 -0.17 5.52 -0.17 5.10658 -0.16712 C 5.07 -0.17 5.03 -0.17 4.99461 -0.1681 C 5.42 -0.17 6.21 -0.17 6.61192 -0.17164 C 6.7 -0.17 6.77 -0.17 6.82135 -0.17243 C 6.87 -0.17 6.89 -0.17 6.86939 -0.17318 C 6.87 -0.17 6.89 -0.17 6.84338 -0.17372 C 6.9 -0.17 7 -0.17 7.09026 -0.17302 C 7.18 -0.17 7.27 -0.17 7.35629 -0.17325 C 7.56 -0.17 7.91 -0.17 8.18048 -0.17506 C 8.4 -0.17 8.71 -0.17 8.89019 -0.16887 C 8.96 -0.17 9.11 -0.17 9.19376 -0.16815 C 9.29 -0.17 9.37 -0.17 9.44481 -0.16847 C 9.52 -0.17 9.6 -0.17 9.65418 -0.16916 C 9.71 -0.17 9.78 -0.17 9.73592 -0.1701 C 9.71 -0.17 9.78 -0.17 9.70544 -0.17065 C 9.53 -0.17 9.21 -0.17 8.99572 -0.17684 C 9.27 -0.18 9.61 -0.18 9.82003 -0.17864 C 9.9 -0.18 9.97 -0.18 10.01771 -0.17942 C 10.06 -0.18 10.09 -0.18 10.06503 -0.18016 C 10.06 -0.18 10.09 -0.18 10.03376 -0.18074 C 9.92 -0.18 9.67 -0.18 9.51908 -0.18127 C 8.9 -0.18 7.67 -0.18 7.05062 -0.17587 C 6.9 -0.18 6.74 -0.17 6.80446 -0.17437 C 6.9 -0.18 6.74 -0.17 6.83343 -0.17381 Z" />
    <path d="M -12.48746 -0.12255 L -12.48746 -0.12303" />
    <path d="M -13.12275 -0.11923 L -13.12275 -0.12593" />
    <path d="M -11.61424 -0.12326 L -11.61424 -0.12327" />
    <path d="M -9.13227 -0.12791 L -9.13227 -0.13039" />
    <path d="M -9.11028 -0.12798 L -9.11028 -0.13035" />
    <path d="M -11.17093 -0.13103 L -11.17093 -0.13503" />
    <path d="M -12.11026 -0.12151 L -12.11026 -0.13298" />
    <path d="M -12.11103 -0.12151 L -12.11103 -0.13296" />
    <path d="M -12.11103 -0.13296 L -12.11103 -0.13296" />
    <path d="M -12.11104 -0.12151 L -12.11104 -0.13296" />
    <path d="M -6.34333 -0.13612 L -6.34333 -0.13735" />
    <path d="M -5.05251 -0.14167 L -5.05251 -0.14484" />
    <path d="M -5.05375 -0.14167 L -5.05375 -0.14484" />
    <path d="M -5.40313 -0.14111 L -5.40313 -0.14427" />
    <path d="M -5.40369 -0.14111 L -5.40369 -0.14427" />
    <path d="M -5.94868 -0.14047 L -5.94868 -0.14371" />
    <path d="M -5.95104 -0.14047 L -5.95104 -0.14374" />
    <path d="M -4.22032 -0.14626 L -4.22032 -0.14627" />
    <path d="M -4.14956 -0.14649 L -4.14956 -0.14879" />
    <path d="M -4.25264 -0.13856 L -4.25264 -0.14242" />
    <path d="M -5.64403 -0.13639 L -5.64403 -0.13995" />
    <path d="M -5.64838 -0.13639 L -5.64838 -0.13997" />
    <path d="M -6.19241 -0.13691 L -6.19241 -0.13969" />
    <path d="M -6.19949 -0.13693 L -6.19949 -0.13967" />
    <path d="M -6.4214 -0.13523 L -6.4214 -0.13813" />
    <path d="M -8.00937 -0.1352 L -8.00937 -0.13837" />
    <path d="M -8.01054 -0.1352 L -8.01054 -0.13837" />
    <path d="M -8.36002 -0.13464 L -8.36002 -0.1378" />
    <path d="M -8.36059 -0.13464 L -8.36059 -0.1378" />
    <path d="M -8.90517 -0.13401 L -8.90517 -0.13724" />
    <path d="M -8.90751 -0.13401 L -8.90751 -0.13727" />
    <path d="M -7.17715 -0.1398 L -7.17715 -0.1398" />
    <path d="M -7.10641 -0.14002 L -7.10641 -0.14233" />
    <path d="M -7.20948 -0.13209 L -7.20948 -0.13596" />
    <path d="M -8.60082 -0.12992 L -8.60082 -0.13349" />
    <path d="M -8.60527 -0.12992 L -8.60527 -0.1335" />
    <path d="M -9.14931 -0.13045 L -9.14931 -0.13323" />
    <path d="M -9.15632 -0.13046 L -9.15632 -0.13321" />
    <path d="M -9.31678 -0.13097 L -9.31678 -0.13254" />
    <path d="M 1.39275 -0.1513 L 1.39275 -0.15258" />
    <path d="M 1.26964 -0.15068 L 1.26964 -0.15308" />
    <path d="M 1.09113 -0.1502 L 1.09113 -0.15345" />
    <path d="M 1.08622 -0.15019 L 1.08622 -0.15346" />
    <path d="M 1.08535 -0.15019 L 1.08535 -0.15347" />
    <path d="M 0.45395 -0.15075 L 0.45395 -0.15473" />
    <path d="M -1.14023 -0.14533 L -1.14023 -0.1501" />
    <path d="M 1.41026 -0.15146 L 1.41026 -0.15243" />
    <path d="M 2.24672 -0.15358 L 2.24672 -0.15359" />
    <path d="M 2.6904 -0.16135 L 2.6904 -0.16535" />
    <path d="M 1.75111 -0.15183 L 1.75111 -0.1633" />
    <path d="M 1.7503 -0.15183 L 1.7503 -0.16328" />
    <path d="M 1.37176 -0.15293 L 1.37176 -0.15331" />
    <path d="M 6.83343 -0.17252 L 6.83343 -0.17381" />
    <path d="M 5.4038 -0.15964 L 5.4038 -0.16453" />
    <path d="M 5.10658 -0.15945 L 5.10658 -0.16712" />
    <path d="M 4.99461 -0.15965 L 4.99461 -0.1681" />
    <path d="M 6.84338 -0.17262 L 6.84338 -0.17372" />
    <path d="M 8.99572 -0.16836 L 8.99572 -0.17684" />
    <path d="M -10.88955 -0.12714 L -10.88955 -0.13037 C -11.08 -0.13 -11.24 -0.13 -11.42881 -0.12919 C -11.4 -0.13 -11.37 -0.13 -11.34793 -0.13146 C -11.22 -0.13 -11.06 -0.13 -10.88955 -0.13037" />
    <path d="M -11.42881 -0.12596 L -11.42881 -0.12919" />
    <path d="M -15.2877 -0.1157 L -15.2877 -0.12384 C -15.04 -0.12 -14.64 -0.13 -14.41842 -0.12575 C -14.23 -0.13 -14.09 -0.13 -14.01099 -0.12633 C -13.94 -0.13 -13.95 -0.13 -13.94202 -0.12624 C -13.93 -0.13 -13.92 -0.13 -13.93495 -0.12614 C -13.93 -0.13 -13.92 -0.13 -13.96775 -0.12583 C -14.01 -0.13 -14.12 -0.13 -14.29598 -0.12478 C -14.52 -0.12 -14.89 -0.12 -15.17417 -0.12285 C -15.22 -0.12 -15.25 -0.12 -15.2877 -0.12384" />
    <path d="M -15.17417 -0.11545 L -15.17417 -0.12285" />
    <path d="M -14.87931 -0.11543 L -14.87931 -0.12028 C -14.59 -0.12 -14.21 -0.12 -13.98753 -0.12223 C -13.77 -0.12 -13.61 -0.12 -13.51612 -0.12288 C -13.43 -0.12 -13.41 -0.12 -13.39492 -0.12264 C -13.38 -0.12 -13.37 -0.12 -13.38229 -0.12246 C -13.38 -0.12 -13.37 -0.12 -13.42223 -0.12208 C -13.48 -0.12 -13.61 -0.12 -13.81667 -0.12084 C -14.04 -0.12 -14.47 -0.12 -14.71739 -0.11887 C -14.77 -0.12 -14.82 -0.12 -14.87931 -0.12028" />
    <path d="M -14.71739 -0.11566 L -14.71739 -0.11887" />
    <path d="M 2.97143 -0.15745 L 2.97143 -0.16069 C 2.78 -0.16 2.62 -0.16 2.43249 -0.15951 C 2.46 -0.16 2.49 -0.16 2.5134 -0.16177 C 2.64 -0.16 2.8 -0.16 2.97143 -0.16069" />
    <path d="M 2.43249 -0.15628 L 2.43249 -0.15951" />
    <path d="M -1.56535 -0.14535 L -1.56535 -0.15381 C -1.33 -0.15 -0.92 -0.16 -0.70029 -0.1557 C -0.52 -0.16 -0.38 -0.16 -0.30971 -0.15623 C -0.25 -0.16 -0.24 -0.16 -0.22394 -0.15604 C -0.22 -0.16 -0.21 -0.16 -0.2202 -0.15597 C -0.22 -0.16 -0.21 -0.16 -0.26017 -0.1556 C -0.31 -0.16 -0.43 -0.15 -0.59593 -0.15449 C -0.81 -0.15 -1.16 -0.15 -1.43379 -0.15266 C -1.48 -0.15 -1.52 -0.15 -1.56535 -0.15381" />
    <path d="M -1.43379 -0.14511 L -1.43379 -0.15266" />
    <path d="M 0.25212 -0.27736 L 0.25212 -0.27827" />
    <path d="M -15.90178 -0.20833 L -15.90178 -0.20932" />
    <path d="M -19.88863 -0.23218 L -19.88863 -0.23312" />
    <path d="M -22.53642 -0.22856 L -22.53642 -0.22958" />
    <path d="M -28.38726 -0.21193 L -28.38726 -0.21494" />
    <path d="M 11.99554 -0.02078 L 11.99554 -0.02188" />
    <path d="M 24.3299 -0.0282 L 24.3299 -0.03132" />
    <path d="M 1.53976 -0.27015 L 1.53976 -0.27259" />
    <path d="M -0.47387 -0.27429 L -0.47387 -0.27551" />
    <path d="M -6.73941 -0.26053 L -6.73941 -0.26181" />
    <path d="M -6.62592 -0.22299 L -6.62592 -0.22421" />
    <path d="M -14.22265 -0.20639 L -14.22265 -0.2076" />
    <path d="M -17.24309 -0.2099 L -17.24309 -0.21199" />
    <path d="M -19.03143 -0.22515 L -19.03143 -0.22759" />
    <path d="M -6.94122 -0.24444 L -6.94122 -0.24648" />
    <path d="M 20.35017 -0.1026 L 20.35017 -0.10847" />
    <path d="M 19.56825 -0.09943 L 19.56825 -0.10065" />
    <path d="M 18.6761 -0.09746 L 18.6761 -0.0987" />
    <path d="M 7.21631 -0.05791 L 7.21631 -0.06019" />
    <path d="M -3.02027 -0.03665 L -3.02027 -0.03902" />
    <path d="M -6.37632 -0.04268 L -6.37632 -0.0439" />
    <path d="M -7.26847 -0.04075 L -7.26847 -0.04195" />
    <path d="M -8.9465 -0.04246 L -8.9465 -0.04439" />
    <path d="M -5.39738 -0.23415 L -5.39738 -0.2379" />
    <path d="M 24.15336 -0.02589 L 24.15336 -0.02984" />
    <path d="M 8.10406 -0.05017 L 8.10406 -0.05244" />
    <path d="M 9.00142 -0.04234 L 9.00142 -0.04461" />
    <path d="M 9.89158 -0.03457 L 9.89158 -0.03684" />
    <path d="M 11.10608 -0.02854 L 11.10608 -0.02964" />
    <path d="M 10.79499 -0.02669 L 10.79499 -0.02896" />
    <path d="M -27.75691 -0.20606 L -27.75691 -0.2085" />
    <path d="M 0.88873 0.00214 L 0.88873 0.00011" />
    <path d="M -12.55515 -0.1218 L -12.55515 -0.12435" />
    <path d="M -13.05149 -0.11944 L -13.05149 -0.12589" />
    <path d="M -13.14203 -0.11917 L -13.14203 -0.12815" />
    <path d="M -13.78145 -0.12262 L -13.78145 -0.1296" />
    <path d="M -14.68308 -0.12517 L -14.68308 -0.1284" />
    <path d="M -15.74026 -0.11905 L -15.74026 -0.12609" />
    <path d="M -16.13909 -0.12252 L -16.13909 -0.12473" />
    <path d="M -8.9786 -0.1287 L -8.9786 -0.12979" />
    <path d="M -11.74251 -0.12222 L -11.74251 -0.13484" />
    <path d="M -3.42963 -0.14202 L -3.42963 -0.14433" />
    <path d="M -3.70761 -0.14032 L -3.70761 -0.14556" />
    <path d="M -4.09463 -0.13899 L -4.09463 -0.14588" />
    <path d="M -5.90288 -0.14051 L -5.90288 -0.14368" />
    <path d="M -4.02615 -0.14717 L -4.02615 -0.14826" />
    <path d="M -5.73076 -0.14467 L -5.73076 -0.14797" />
    <path d="M -6.6398 -0.14116 L -6.6398 -0.14505" />
    <path d="M -4.32204 -0.13839 L -4.32204 -0.14199" />
    <path d="M -4.81645 -0.13734 L -4.81645 -0.14049" />
    <path d="M -5.43068 -0.1365 L -5.43068 -0.13963" />
    <path d="M -5.90783 -0.13647 L -5.90783 -0.1402" />
    <path d="M -6.10216 -0.13672 L -6.10216 -0.13992" />
    <path d="M -6.35994 -0.13586 L -6.35994 -0.13901" />
    <path d="M -6.66442 -0.13386 L -6.66442 -0.13909" />
    <path d="M -7.05146 -0.13252 L -7.05146 -0.13941" />
    <path d="M -8.85936 -0.13404 L -8.85936 -0.13722" />
    <path d="M -6.983 -0.1407 L -6.983 -0.14179" />
    <path d="M -8.68725 -0.1382 L -8.68725 -0.14151" />
    <path d="M -9.59622 -0.13469 L -9.59622 -0.13858" />
    <path d="M -7.2789 -0.13192 L -7.2789 -0.13552" />
    <path d="M -7.77327 -0.13087 L -7.77327 -0.13402" />
    <path d="M -8.38754 -0.13003 L -8.38754 -0.13316" />
    <path d="M -8.86469 -0.13 L -8.86469 -0.13373" />
    <path d="M -9.05906 -0.13026 L -9.05906 -0.13346" />
    <path d="M 9.9082 -0.18365 L 9.9082 -0.18491" />
    <path d="M 9.47453 -0.18238 L 9.47453 -0.18554" />
    <path d="M -16.77278 -0.12561 L -16.77278 -0.12813" />
    <path d="M 11.54435 -0.16937 L 11.54435 -0.17064" />
    <path d="M 11.11075 -0.16811 L 11.11075 -0.17127" />
    <path d="M -15.13657 -0.11133 L -15.13657 -0.11385" />
    <path d="M 1.29046 -0.15075 L 1.29046 -0.15303" />
    <path d="M 0.57413 -0.15555 L 0.57413 -0.15797" />
    <path d="M -0.05917 -0.15182 L -0.05917 -0.15949" />
    <path d="M -0.9685 -0.15511 L -0.9685 -0.15833" />
    <path d="M -2.01669 -0.14895 L -2.01669 -0.15604" />
    <path d="M -2.41655 -0.15244 L -2.41655 -0.15469" />
    <path d="M -0.85079 -0.14641 L -0.85079 -0.14757" />
    <path d="M 4.88237 -0.15902 L 4.88237 -0.16011" />
    <path d="M 2.1184 -0.15254 L 2.1184 -0.16516" />
    <path d="M 1.36953 -0.15302 L 1.36953 -0.15323" />
    <path d="M 6.57843 -0.17157 L 6.57843 -0.17452" />
    <path d="M 6.31215 -0.17098 L 6.31215 -0.17425" />
    <path d="M 4.5337 -0.16328 L 4.5337 -0.17036" />
    <path d="M 4.13403 -0.16676 L 4.13403 -0.16903" />
    <path d="M 5.70432 -0.16076 L 5.70432 -0.16191" />
    <path d="M 6.98973 -0.16843 L 6.98973 -0.16961" />
    <path d="M 6.73847 -0.16745 L 6.73847 -0.17037" />
    <path d="M 6.47319 -0.16687 L 6.47319 -0.17011" />
    <path d="M 9.70544 -0.16952 L 9.70544 -0.17065" />
    <path d="M 10.03376 -0.17955 L 10.03376 -0.18074" />
    <path d="M 9.51908 -0.17799 L 9.51908 -0.18127" />
    <path d="M 7.05062 -0.17305 L 7.05062 -0.17587" />
    <path d="M -13.94202 -0.12233 L -13.94202 -0.12602" />
    <path d="M -13.96775 -0.12228 L -13.96775 -0.12583" />
    <path d="M -14.29598 -0.12156 L -14.29598 -0.12478" />
    <path d="M -13.42223 -0.11847 L -13.42223 -0.12208" />
    <path d="M -13.81667 -0.11761 L -13.81667 -0.12084" />
    <path d="M -0.22394 -0.15189 L -0.22394 -0.15588" />
    <path d="M -0.26017 -0.15187 L -0.26017 -0.1556" />
    <path d="M -0.59593 -0.15129 L -0.59593 -0.15449" />
    <path d="M -5.84114 -0.22914 L -5.84114 -0.23301" />
    <path d="M 18.03266 -0.08501 L 18.03266 -0.08886" />
    <path d="M -5.38232 -0.22825 L -5.38232 -0.23301" />
    <path d="M -28.40146 -0.20709 L -28.40146 -0.21096" />
    <path d="M -7.81872 -0.2521 L -7.81872 -0.25597" />
    <path d="M 20.78354 -0.10161 L 20.78354 -0.10548" />
    <path d="M 17.54445 -0.08417 L 17.54445 -0.08892" />
    <path d="M -7.28241 -0.2519 L -7.28241 -0.25603" />
    <path d="M 20.25915 -0.10191 L 20.25915 -0.10554" />
    <path d="M 24.15348 -0.02589 L 24.15348 -0.02989" />
    <path d="M 23.62755 -0.0261 L 23.62755 -0.02974" />
    <path d="M -27.88952 -0.20599 L -27.88952 -0.21095" />
    <path d="M -12.11104 -0.12151 L -12.11104 -0.13296" />
    <path d="M -12.11102 -0.12151 L -12.11102 -0.13296" />
    <path d="M -5.94726 -0.14048 L -5.94726 -0.1437" />
    <path d="M -5.95368 -0.14047 L -5.95368 -0.14372" />
    <path d="M -4.25004 -0.13857 L -4.25004 -0.14248" />
    <path d="M -8.90374 -0.13401 L -8.90374 -0.13723" />
    <path d="M -8.91014 -0.134 L -8.91014 -0.13726" />
    <path d="M -7.20688 -0.1321 L -7.20688 -0.13601" />
    <path d="M -13.93495 -0.12234 L -13.93495 -0.12614" />
    <path d="M -13.38229 -0.11856 L -13.38229 -0.12246" />
    <path d="M -0.2202 -0.15189 L -0.2202 -0.15597" />
</svg>